<svg width="100" height="100" viewBox="0 0 100 100" fill="none" xmlns="http://www.w3.org/2000/svg">
<g filter="url(#filter0_d_67_1340)">
<rect x="16" y="16" width="68" height="68" rx="34" fill="white"/>
<path fill-rule="evenodd" clip-rule="evenodd" d="M38.9302 52.7675H36.6701C36.3581 52.7668 36.0513 52.6878 35.7778 52.5378C35.5043 52.3877 35.2728 52.1714 35.1046 51.9086C33.3167 49.146 32.3998 45.9101 32.4728 42.6202C32.4728 36.2661 35.921 32.4729 41.6976 32.4729C44.6302 32.4729 47.4889 33.8206 49.9077 35.1057C52.4079 33.4672 55.3142 32.5557 58.3022 32.4729C64.0788 32.4729 67.5271 36.2661 67.5271 42.6202C67.5989 45.9097 66.6828 49.1451 64.8971 51.9086C64.7284 52.1716 64.4965 52.388 64.2225 52.5381C63.9485 52.6881 63.6412 52.767 63.3288 52.7675H61.0697H59.2247H40.7751H38.9302ZM50.0396 37.2688C47.6064 35.9535 44.5806 34.3179 41.6976 34.3179C37.0077 34.3179 34.3178 37.3436 34.3178 42.6202C34.239 45.5616 35.0572 48.4573 36.6636 50.9225H63.3288C64.9399 48.459 65.7609 45.5626 65.6821 42.6202C65.6821 37.3436 62.9921 34.3179 58.3022 34.3179C56.0225 34.3805 53.7927 35.0006 51.808 36.1241C52.5049 36.5161 53.2316 36.8526 53.9813 37.1305C54.2138 37.2078 54.406 37.3743 54.5156 37.5933C54.6253 37.8123 54.6435 38.0659 54.5662 38.2984C54.4889 38.5308 54.3224 38.723 54.1034 38.8327C53.8844 38.9423 53.6308 38.9605 53.3983 38.8832C52.2378 38.4365 51.1152 37.8969 50.0414 37.2698L50.0396 37.2688Z" fill="#81CEB2"/>
<path fill-rule="evenodd" clip-rule="evenodd" d="M38.9302 52.7675V53.69C38.9302 54.4239 39.2217 55.1278 39.7407 55.6468C40.2597 56.1658 40.9636 56.4574 41.6976 56.4574H43.6837L43.9909 58.3024H42.6201C42.3754 58.3024 42.1408 58.3995 41.9678 58.5725C41.7948 58.7455 41.6976 58.9802 41.6976 59.2248C41.6976 59.4695 41.7948 59.7041 41.9678 59.8771C42.1408 60.0501 42.3754 60.1473 42.6201 60.1473H44.2981L44.7593 62.9148H43.5426C43.2979 62.9148 43.0633 63.0119 42.8903 63.1849C42.7173 63.3579 42.6201 63.5926 42.6201 63.8372C42.6201 64.0819 42.7173 64.3165 42.8903 64.4895C43.0633 64.6625 43.2979 64.7597 43.5426 64.7597H45.0665L45.2455 65.8307C45.318 66.2609 45.4909 66.668 45.7503 67.0189C46.0096 67.3697 46.348 67.6545 46.738 67.85L49.5876 69.2799C49.7156 69.3439 49.8568 69.3772 49.9999 69.3772C50.1431 69.3772 50.2842 69.3439 50.4123 69.2799L53.2618 67.8546C53.6521 67.6594 53.9907 67.3746 54.25 67.0235C54.5092 66.6724 54.6817 66.2649 54.7535 65.8344L54.9324 64.7597H56.4573C56.7019 64.7597 56.9366 64.6625 57.1096 64.4895C57.2826 64.3165 57.3798 64.0819 57.3798 63.8372C57.3798 63.5926 57.2826 63.3579 57.1096 63.1849C56.9366 63.0119 56.7019 62.9148 56.4573 62.9148H55.2396L55.7009 60.1473H57.3798C57.6244 60.1473 57.8591 60.0501 58.0321 59.8771C58.2051 59.7041 58.3022 59.4695 58.3022 59.2248C58.3022 58.9802 58.2051 58.7455 58.0321 58.5725C57.8591 58.3995 57.6244 58.3024 57.3798 58.3024H56.009L56.3161 56.4574H58.3022C59.0362 56.4574 59.7401 56.1658 60.2591 55.6468C60.7781 55.1278 61.0697 54.4239 61.0697 53.69V52.7675H59.2247V53.69C59.2247 53.9346 59.1275 54.1692 58.9545 54.3422C58.7815 54.5152 58.5469 54.6124 58.3022 54.6124H41.6976C41.4529 54.6124 41.2183 54.5152 41.0453 54.3422C40.8723 54.1692 40.7751 53.9346 40.7751 53.69V52.7675H38.9302ZM52.7663 65.9231C52.8527 65.8062 52.9103 65.6706 52.9343 65.5272L53.0616 64.7597H46.9373L47.0646 65.5263C47.089 65.6697 47.1468 65.8054 47.2334 65.9224C47.3199 66.0394 47.4327 66.1344 47.5627 66.1997L49.9999 67.4183L52.4371 66.1997C52.5671 66.1347 52.6799 66.0399 52.7663 65.9231ZM46.6301 62.9148H53.3697L53.831 60.1473H46.1689L46.6301 62.9148ZM45.8617 58.3024H54.1382L54.4463 56.4574H45.5536L45.8617 58.3024Z" fill="#81CEB2"/>
</g>
<defs>
<filter id="filter0_d_67_1340" x="0" y="0" width="100" height="100" filterUnits="userSpaceOnUse" color-interpolation-filters="sRGB">
<feFlood flood-opacity="0" result="BackgroundImageFix"/>
<feColorMatrix in="SourceAlpha" type="matrix" values="0 0 0 0 0 0 0 0 0 0 0 0 0 0 0 0 0 0 127 0" result="hardAlpha"/>
<feOffset/>
<feGaussianBlur stdDeviation="8"/>
<feComposite in2="hardAlpha" operator="out"/>
<feColorMatrix type="matrix" values="0 0 0 0 0.513021 0 0 0 0 0.602604 0 0 0 0 0.625 0 0 0 0.1 0"/>
<feBlend mode="normal" in2="BackgroundImageFix" result="effect1_dropShadow_67_1340"/>
<feBlend mode="normal" in="SourceGraphic" in2="effect1_dropShadow_67_1340" result="shape"/>
</filter>
</defs>
</svg>
