<svg width="100" height="100" viewBox="0 0 100 100" fill="none" xmlns="http://www.w3.org/2000/svg">
<g filter="url(#filter0_d_67_1332)">
<rect x="16" y="16" width="68" height="68" rx="34" fill="white"/>
<path d="M38.1373 55.4595L38.1375 55.4594C37.7098 54.6576 37.2761 53.841 36.8933 52.9828H33.5105C33.2852 52.9828 33.0691 52.8933 32.9098 52.7339C32.7505 52.5746 32.661 52.3585 32.661 52.1332C32.661 51.9079 32.7505 51.6919 32.9098 51.5325C33.0691 51.3732 33.2852 51.2837 33.5105 51.2837H36.3826H37.9604H44.0037H55.9959H62.04H63.617H66.4891C66.7144 51.2837 66.9305 51.3732 67.0898 51.5325C67.2491 51.6919 67.3387 51.9079 67.3387 52.1332C67.3387 52.3585 67.2491 52.5746 67.0898 52.7339C66.9305 52.8933 66.7144 52.9828 66.4891 52.9828H63.1065C62.7252 53.841 62.295 54.6574 61.8612 55.4599L61.8587 55.4644L61.8586 55.4643C60.9086 57.0268 60.2228 58.7353 59.8289 60.521C59.3692 63.1523 58.315 65.644 56.7467 67.8063L56.635 67.9754C56.4836 68.2041 56.3446 68.4141 56.2255 68.6112C56.2255 68.6112 56.2255 68.6113 56.2254 68.6113L56.1398 68.5596C55.9899 68.8086 55.778 69.0143 55.5246 69.1567C55.2713 69.2992 54.9854 69.3734 54.6948 69.3721L38.1373 55.4595ZM38.1373 55.4595L38.1403 55.4643M38.1373 55.4595L38.1403 55.4643M38.1403 55.4643C39.0906 57.0266 39.7764 58.7352 40.17 60.5209M38.1403 55.4643L40.17 60.5209M40.17 60.5209C40.6296 63.1525 41.6841 65.6443 43.253 67.8064L43.2992 67.8761C43.4767 68.1431 43.6378 68.3856 43.7742 68.6113L40.17 60.5209ZM58.1572 60.2325L58.1571 60.2325L58.1565 60.2363C57.7385 62.6308 56.7743 64.8968 55.3389 66.8584L55.3388 66.8583L55.3364 66.8619C55.1286 67.1732 54.9391 67.4593 54.7775 67.7213C54.7653 67.7362 54.7491 67.7474 54.7308 67.7535C54.7113 67.76 54.6902 67.7605 54.6703 67.7548C54.6505 67.7492 54.6328 67.7376 54.6196 67.7218C54.6073 67.7069 54.5994 67.6889 54.5969 67.6697V62.6264C54.5969 61.4072 54.1126 60.2379 53.2505 59.3758C52.3883 58.5137 51.219 58.0294 49.9998 58.0294C48.7806 58.0294 47.6113 58.5137 46.7492 59.3758C45.8871 60.2379 45.4027 61.4072 45.4027 62.6264V67.6702C45.4004 67.6895 45.3926 67.7079 45.3801 67.723C45.367 67.739 45.3492 67.7506 45.3293 67.7563C45.3094 67.762 45.2882 67.7616 45.2685 67.755C45.2501 67.7488 45.2339 67.7375 45.2217 67.7225C45.0631 67.4627 44.8766 67.1822 44.6734 66.8768L44.6726 66.8756L44.6641 66.8628L44.6642 66.8627L44.6615 66.8591C43.2255 64.8978 42.261 62.6317 41.8432 60.237L41.8433 60.237L41.8424 60.2332C41.4198 58.2656 40.6736 56.3817 39.6341 54.6584C39.3341 54.0957 39.0413 53.542 38.7684 52.9835H44.0037L55.9959 52.9828H61.2318C60.9534 53.5462 60.6646 54.1046 60.3657 54.6575C59.3261 56.3808 58.5798 58.2647 58.1572 60.2325Z" fill="#81CEB2" stroke="#81CEB2" stroke-width="0.2"/>
<path fill-rule="evenodd" clip-rule="evenodd" d="M39.1648 48.9458H36.9047C36.5927 48.9451 36.2859 48.8661 36.0124 48.7161C35.7389 48.566 35.5074 48.3497 35.3392 48.0869C33.5513 45.3243 32.6344 43.4721 32.7074 40.1822C32.7074 33.8282 36.1556 30.0349 41.9322 30.0349C44.8648 30.0349 47.7235 31.3827 50.1423 32.6677C52.6425 31.0292 55.5488 30.1177 58.5369 30.0349C64.3134 30.0349 67.7617 33.8282 67.7617 40.1822C67.8336 43.4717 66.9175 45.3234 65.1317 48.0869C64.9631 48.3499 64.7311 48.5663 64.4571 48.7164C64.1831 48.8664 63.8759 48.9453 63.5635 48.9458H61.3043H59.4594H41.0097H39.1648ZM50.2742 34.8308C47.841 33.5155 44.8152 31.8799 41.9322 31.8799C37.2423 31.8799 34.5524 34.9056 34.5524 40.1822C34.4736 43.1236 35.2918 44.6356 36.8982 47.1008H63.5635C65.1745 44.6373 65.9955 43.1246 65.9167 40.1822C65.9167 34.9056 63.2268 31.8799 58.5369 31.8799C56.2571 31.9425 54.0273 32.5626 52.0426 33.6861C52.7395 34.0781 53.4662 34.4146 54.216 34.6925C54.4484 34.7698 54.6406 34.9363 54.7503 35.1553C54.8599 35.3743 54.8781 35.628 54.8008 35.8604C54.7235 36.0928 54.557 36.285 54.338 36.3947C54.119 36.5044 53.8654 36.5225 53.633 36.4452C52.4725 35.9985 51.3498 35.459 50.2761 34.8318L50.2742 34.8308Z" fill="#81CEB2"/>
</g>
<defs>
<filter id="filter0_d_67_1332" x="0" y="0" width="100" height="100" filterUnits="userSpaceOnUse" color-interpolation-filters="sRGB">
<feFlood flood-opacity="0" result="BackgroundImageFix"/>
<feColorMatrix in="SourceAlpha" type="matrix" values="0 0 0 0 0 0 0 0 0 0 0 0 0 0 0 0 0 0 127 0" result="hardAlpha"/>
<feOffset/>
<feGaussianBlur stdDeviation="8"/>
<feComposite in2="hardAlpha" operator="out"/>
<feColorMatrix type="matrix" values="0 0 0 0 0.513021 0 0 0 0 0.602604 0 0 0 0 0.625 0 0 0 0.1 0"/>
<feBlend mode="normal" in2="BackgroundImageFix" result="effect1_dropShadow_67_1332"/>
<feBlend mode="normal" in="SourceGraphic" in2="effect1_dropShadow_67_1332" result="shape"/>
</filter>
</defs>
</svg>
