<svg width="118" height="118" viewBox="0 0 118 118" fill="none" xmlns="http://www.w3.org/2000/svg">
<g filter="url(#filter0_d_12_339)">
<rect x="16" y="16" width="86" height="86" rx="43" fill="white"/>
<path d="M44.0208 65.8922L44.021 65.8921C43.4774 64.873 42.9266 63.836 42.4412 62.7458H38.1459C37.8679 62.7458 37.6014 62.6354 37.4049 62.4389C37.2083 62.2424 37.0979 61.9758 37.0979 61.6979C37.0979 61.42 37.2083 61.1534 37.4049 60.9569C37.6014 60.7604 37.8679 60.65 38.1459 60.65H41.7783H43.7736H51.4167H66.5833H74.2273H76.2217H79.8541C80.1321 60.65 80.3986 60.7604 80.5951 60.9569C80.7916 61.1534 80.9021 61.42 80.9021 61.6979C80.9021 61.9758 80.7916 62.2424 80.5951 62.4389C80.3986 62.6354 80.1321 62.7458 79.8541 62.7458H75.5589C75.0754 63.836 74.5291 64.8729 73.9778 65.8926L73.9754 65.8971L73.9753 65.897C72.7722 67.8757 71.9037 70.0394 71.4049 72.3008C70.8242 75.625 69.4925 78.7729 67.5111 81.5046C67.4632 81.5774 67.4159 81.6489 67.3694 81.719C67.1781 82.0081 67.002 82.2741 66.851 82.524C66.851 82.5241 66.8509 82.5241 66.8509 82.5241L66.7653 82.4724C66.5757 82.7873 66.3076 83.0475 65.9873 83.2276C65.6669 83.4078 65.3053 83.5016 64.9377 83.5L44.0208 65.8922ZM44.0208 65.8922L44.0238 65.897M44.0208 65.8922L44.0238 65.897M44.0238 65.897C45.2273 67.8755 46.0958 70.0392 46.5941 72.3008M44.0238 65.897L46.5941 72.3008M46.5941 72.3008C47.1747 75.6253 48.5068 78.7734 50.489 81.5048L50.5478 81.5933C50.7722 81.931 50.9763 82.2381 51.1491 82.5241L46.5941 72.3008ZM69.3426 71.9466L69.3425 71.9466L69.3418 71.9504C68.8125 74.9828 67.5915 77.8524 65.7737 80.3365L65.7736 80.3364L65.7712 80.34C65.508 80.7343 65.2683 81.0963 65.064 81.4276C65.0453 81.451 65.0202 81.4685 64.9917 81.478C64.9619 81.488 64.9298 81.4887 64.8996 81.4801C64.8693 81.4714 64.8424 81.4539 64.8224 81.4297C64.8032 81.4066 64.7911 81.3784 64.7875 81.3487V74.9687C64.7875 73.4338 64.1777 71.9617 63.0924 70.8764C62.007 69.791 60.5349 69.1812 59 69.1812C57.4651 69.1812 55.993 69.791 54.9076 70.8764C53.8223 71.9617 53.2125 73.4338 53.2125 74.9687V81.3491C53.2092 81.3792 53.1972 81.4077 53.1779 81.4312C53.1578 81.4555 53.1308 81.4733 53.1005 81.482C53.0701 81.4907 53.0378 81.49 53.0079 81.4799C52.9792 81.4703 52.9541 81.4526 52.9353 81.429C52.7349 81.1005 52.499 80.7458 52.2416 80.3588L52.2406 80.3573L52.2298 80.3411L52.2299 80.3411L52.2273 80.3374C50.4087 77.8536 49.1873 74.984 48.6582 71.9514L48.6582 71.9514L48.6574 71.9476C48.1235 69.4617 47.1807 67.0817 45.8674 64.9046C45.4811 64.18 45.1039 63.4668 44.7531 62.7468H51.4167L66.5833 62.7458H73.2477C72.8895 63.4719 72.5178 64.1912 72.1328 64.9034C70.8194 67.0806 69.8765 69.4607 69.3426 71.9466Z" fill="#81CEB2" stroke="#81CEB2" stroke-width="0.2"/>
<path fill-rule="evenodd" clip-rule="evenodd" d="M45.2968 57.6667H42.4384C42.0439 57.6658 41.6559 57.5659 41.31 57.3762C40.964 57.1864 40.6713 56.9128 40.4586 56.5805C38.1974 53.0866 37.0378 50.7441 37.1301 46.5833C37.1301 38.5473 41.4911 33.75 48.7968 33.75C52.5056 33.75 56.1211 35.4545 59.1801 37.0797C62.3421 35.0075 66.0177 33.8547 69.7968 33.75C77.1024 33.75 81.4634 38.5473 81.4634 46.5833C81.5544 50.7436 80.3958 53.0855 78.1373 56.5805C77.924 56.9131 77.6307 57.1868 77.2842 57.3766C76.9376 57.5663 76.549 57.6661 76.1539 57.6667H73.2968H70.9634H47.6301H45.2968ZM59.347 39.8154C56.2697 38.152 52.4429 36.0833 48.7968 36.0833C42.8654 36.0833 39.4634 39.91 39.4634 46.5833C39.3638 50.3033 40.3986 52.2156 42.4303 55.3333H76.1539C78.1914 52.2178 79.2297 50.3047 79.1301 46.5833C79.1301 39.91 75.7281 36.0833 69.7968 36.0833C66.9135 36.1625 64.0936 36.9468 61.5834 38.3677C62.4648 38.8634 63.3839 39.289 64.3321 39.6405C64.6261 39.7383 64.8691 39.9488 65.0078 40.2258C65.1466 40.5028 65.1696 40.8236 65.0718 41.1175C64.974 41.4114 64.7635 41.6545 64.4865 41.7932C64.2095 41.9319 63.8887 41.9549 63.5948 41.8572C62.1271 41.2922 60.7073 40.6098 59.3493 39.8167L59.347 39.8154Z" fill="#81CEB2"/>
</g>
<defs>
<filter id="filter0_d_12_339" x="0" y="0" width="118" height="118" filterUnits="userSpaceOnUse" color-interpolation-filters="sRGB">
<feFlood flood-opacity="0" result="BackgroundImageFix"/>
<feColorMatrix in="SourceAlpha" type="matrix" values="0 0 0 0 0 0 0 0 0 0 0 0 0 0 0 0 0 0 127 0" result="hardAlpha"/>
<feOffset/>
<feGaussianBlur stdDeviation="8"/>
<feComposite in2="hardAlpha" operator="out"/>
<feColorMatrix type="matrix" values="0 0 0 0 0.513021 0 0 0 0 0.602604 0 0 0 0 0.625 0 0 0 0.1 0"/>
<feBlend mode="normal" in2="BackgroundImageFix" result="effect1_dropShadow_12_339"/>
<feBlend mode="normal" in="SourceGraphic" in2="effect1_dropShadow_12_339" result="shape"/>
</filter>
</defs>
</svg>
