<svg width="118" height="118" viewBox="0 0 118 118" fill="none" xmlns="http://www.w3.org/2000/svg">
<g filter="url(#filter0_d_12_234)">
<rect x="16" y="16" width="86" height="86" rx="43" fill="white"/>
<path fill-rule="evenodd" clip-rule="evenodd" d="M45 62.5H42.1417C41.7471 62.4991 41.3591 62.3992 41.0132 62.2095C40.6673 62.0197 40.3745 61.7461 40.1618 61.4138C37.9006 57.9199 36.741 53.8274 36.8333 49.6666C36.8333 41.6306 41.1943 36.8333 48.5 36.8333C52.2088 36.8333 55.8243 38.5378 58.8833 40.163C62.0453 38.0908 65.7209 36.938 69.5 36.8333C76.8057 36.8333 81.1667 41.6306 81.1667 49.6666C81.2576 53.8269 80.099 57.9188 77.8405 61.4138C77.6272 61.7464 77.3339 62.0201 76.9874 62.2099C76.6409 62.3997 76.2522 62.4994 75.8572 62.5H73H70.6667H47.3333H45ZM59.0502 42.8987C55.9729 41.2353 52.1461 39.1666 48.5 39.1666C42.5687 39.1666 39.1667 42.9933 39.1667 49.6666C39.067 53.3866 40.1018 57.0489 42.1335 60.1666H75.8572C77.8947 57.0511 78.933 53.388 78.8333 49.6666C78.8333 42.9933 75.4313 39.1666 69.5 39.1666C66.6167 39.2458 63.7968 40.0301 61.2867 41.451C62.168 41.9468 63.0871 42.3723 64.0353 42.7238C64.3293 42.8216 64.5723 43.0321 64.7111 43.3091C64.8498 43.5861 64.8728 43.9069 64.775 44.2008C64.6772 44.4948 64.4667 44.7378 64.1897 44.8765C63.9127 45.0153 63.5919 45.0383 63.298 44.9405C61.8303 44.3755 60.4105 43.6931 59.0525 42.9L59.0502 42.8987Z" fill="#81CEB2"/>
<path fill-rule="evenodd" clip-rule="evenodd" d="M45 62.5V63.6666C45 64.5949 45.3687 65.4851 46.0251 66.1415C46.6815 66.7979 47.5717 67.1666 48.5 67.1666H51.0118L51.4003 69.5H49.6667C49.3572 69.5 49.0605 69.6229 48.8417 69.8417C48.6229 70.0605 48.5 70.3572 48.5 70.6666C48.5 70.9761 48.6229 71.2728 48.8417 71.4916C49.0605 71.7104 49.3572 71.8333 49.6667 71.8333H51.7888L52.3722 75.3333H50.8333C50.5239 75.3333 50.2272 75.4562 50.0084 75.675C49.7896 75.8938 49.6667 76.1906 49.6667 76.5C49.6667 76.8094 49.7896 77.1061 50.0084 77.3249C50.2272 77.5437 50.5239 77.6666 50.8333 77.6666H52.7607L52.987 79.0211C53.0787 79.5653 53.2974 80.0801 53.6254 80.5238C53.9534 80.9675 54.3814 81.3277 54.8747 81.575L58.4785 83.3833C58.6404 83.4642 58.819 83.5064 59 83.5064C59.181 83.5064 59.3596 83.4642 59.5215 83.3833L63.1253 81.5808C63.619 81.3339 64.0472 80.9737 64.3751 80.5296C64.7029 80.0856 64.9211 79.5703 65.0118 79.0258L65.2382 77.6666H67.1667C67.4761 77.6666 67.7728 77.5437 67.9916 77.3249C68.2104 77.1061 68.3333 76.8094 68.3333 76.5C68.3333 76.1906 68.2104 75.8938 67.9916 75.675C67.7728 75.4562 67.4761 75.3333 67.1667 75.3333H65.6267L66.21 71.8333H68.3333C68.6427 71.8333 68.9395 71.7104 69.1583 71.4916C69.3771 71.2728 69.5 70.9761 69.5 70.6666C69.5 70.3572 69.3771 70.0605 69.1583 69.8417C68.9395 69.6229 68.6427 69.5 68.3333 69.5H66.5997L66.9882 67.1666H69.5C70.4282 67.1666 71.3185 66.7979 71.9749 66.1415C72.6312 65.4851 73 64.5949 73 63.6666V62.5H70.6667V63.6666C70.6667 63.9761 70.5437 64.2728 70.325 64.4916C70.1062 64.7104 69.8094 64.8333 69.5 64.8333H48.5C48.1906 64.8333 47.8938 64.7104 47.675 64.4916C47.4562 64.2728 47.3333 63.9761 47.3333 63.6666V62.5H45ZM62.4987 79.1379C62.6079 78.9901 62.6808 78.8186 62.7112 78.6373L62.8722 77.6666H55.1267L55.2877 78.6361C55.3186 78.8176 55.3917 78.9892 55.5011 79.1371C55.6105 79.285 55.7532 79.4052 55.9177 79.4878L59 81.029L62.0823 79.4878C62.2467 79.4056 62.3894 79.2857 62.4987 79.1379ZM54.7382 75.3333H63.2618L63.8452 71.8333H54.1548L54.7382 75.3333ZM53.7663 69.5H64.2337L64.6233 67.1666H53.3767L53.7663 69.5Z" fill="#81CEB2"/>
</g>
<defs>
<filter id="filter0_d_12_234" x="0" y="0" width="118" height="118" filterUnits="userSpaceOnUse" color-interpolation-filters="sRGB">
<feFlood flood-opacity="0" result="BackgroundImageFix"/>
<feColorMatrix in="SourceAlpha" type="matrix" values="0 0 0 0 0 0 0 0 0 0 0 0 0 0 0 0 0 0 127 0" result="hardAlpha"/>
<feOffset/>
<feGaussianBlur stdDeviation="8"/>
<feComposite in2="hardAlpha" operator="out"/>
<feColorMatrix type="matrix" values="0 0 0 0 0.513021 0 0 0 0 0.602604 0 0 0 0 0.625 0 0 0 0.1 0"/>
<feBlend mode="normal" in2="BackgroundImageFix" result="effect1_dropShadow_12_234"/>
<feBlend mode="normal" in="SourceGraphic" in2="effect1_dropShadow_12_234" result="shape"/>
</filter>
</defs>
</svg>
