<svg width="118" height="118" viewBox="0 0 118 118" fill="none" xmlns="http://www.w3.org/2000/svg">
<g filter="url(#filter0_d_12_304)">
<rect width="86" height="86" rx="43" transform="matrix(-1 0 0 1 102 16)" fill="white"/>
<path d="M84.1368 67.5553L84.1323 67.5838L84.1436 67.6104L84.8128 69.1804L84.8388 69.2411H84.9048C85.3396 69.2411 85.7099 68.9254 85.7787 68.4961L87.0686 60.4424C87.3006 58.9934 86.2202 57.6556 84.7376 57.6099C81.0836 57.4974 71.9832 57.2638 59.3927 57.2638C46.6801 57.2638 37.0645 57.5019 33.2676 57.6131C31.7821 57.6566 30.7003 58.9965 30.9326 60.4472L32.2217 68.4961C32.2905 68.9254 32.6608 69.2411 33.0956 69.2411H33.1617L33.1876 69.1804L33.8568 67.6104L33.8682 67.5838L33.8636 67.5553L32.6803 60.1672C32.6143 59.7551 32.9183 59.3941 33.3195 59.3823C37.1036 59.2715 46.7014 59.0337 59.3927 59.0337C71.9618 59.0337 81.0437 59.267 84.6831 59.3791C85.0837 59.3914 85.3866 59.7521 85.3209 60.1625L84.1368 67.5553Z" fill="#81CEB2" stroke="#81CEB2" stroke-width="0.2"/>
<path d="M85.437 51.1839H85.5046L85.5298 51.1211L85.7273 50.628C87.1644 47.0414 85.0656 43.0022 81.1672 42.4122C76.11 41.6468 68.3221 40.779 59.0012 40.779C49.6802 40.779 41.8924 41.6468 36.8352 42.4122C32.9368 43.0022 30.838 47.0414 32.2751 50.628L32.4726 51.1211L32.4978 51.1839H32.5654H85.437ZM37.1 44.1623C42.0898 43.407 49.7872 42.549 59.0012 42.549C68.2151 42.549 75.9125 43.407 80.9023 44.1623C83.4049 44.541 84.9029 46.984 84.2678 49.4139H33.7346C33.0994 46.984 34.5975 44.541 37.1 44.1623Z" fill="#81CEB2" stroke="#81CEB2" stroke-width="0.2"/>
<path d="M53.8977 61.1888C50.5909 61.1888 47.9103 63.8694 47.9103 67.1762V73.3188C47.9103 74.5383 48.8054 75.5729 50.0122 75.7483L53.5447 76.2615C53.7788 76.2956 54.0166 76.2956 54.2507 76.2615L57.7831 75.7483C58.9899 75.5729 59.8851 74.5383 59.8851 73.3188V67.1762C59.8851 63.8694 57.2044 61.1888 53.8977 61.1888ZM49.6802 67.1762C49.6802 64.8469 51.5684 62.9587 53.8977 62.9587C56.2269 62.9587 58.1151 64.8469 58.1151 67.1762V73.3188C58.1151 73.6591 57.8653 73.9478 57.5286 73.9967L53.9962 74.51C53.9308 74.5195 53.8645 74.5195 53.7992 74.51L50.2667 73.9967C49.93 73.9478 49.6802 73.6591 49.6802 73.3188V67.1762Z" fill="#81CEB2" stroke="#81CEB2" stroke-width="0.2"/>
<path d="M64.1026 61.1888C60.7958 61.1888 58.1151 63.8694 58.1151 67.1762V73.3188C58.1151 74.5383 59.0103 75.5729 60.2171 75.7483L63.7496 76.2615C63.9837 76.2956 64.2215 76.2956 64.4556 76.2615L67.988 75.7483C69.1948 75.5729 70.09 74.5383 70.09 73.3188V67.1762C70.09 63.8694 67.4093 61.1888 64.1026 61.1888ZM59.8851 67.1762C59.8851 64.8469 61.7733 62.9587 64.1026 62.9587C66.4318 62.9587 68.32 64.8469 68.32 67.1762V73.3188C68.32 73.6591 68.0702 73.9478 67.7335 73.9967L64.2011 74.51C64.1357 74.5195 64.0694 74.5195 64.0041 74.51L60.4716 73.9967C60.1349 73.9478 59.8851 73.6591 59.8851 73.3188V67.1762Z" fill="#81CEB2" stroke="#81CEB2" stroke-width="0.2"/>
<path d="M73.1299 61.5812C70.4735 61.5812 68.32 63.7347 68.32 66.3911V72.1477C68.32 73.3328 69.1666 74.3487 70.3323 74.5625L72.6616 74.9895C72.9803 75.0479 73.3074 75.0427 73.6241 74.9741L76.0047 74.4583C77.134 74.2136 77.9398 73.2145 77.9398 72.059V66.3911C77.9398 63.7347 75.7864 61.5812 73.1299 61.5812ZM70.09 66.3911C70.09 64.7122 71.451 63.3512 73.1299 63.3512C74.8088 63.3512 76.1699 64.7122 76.1699 66.3911V72.059C76.1699 72.3814 75.945 72.6602 75.6299 72.7284L73.2493 73.2442C73.1609 73.2634 73.0697 73.2648 72.9807 73.2485L70.6514 72.8215C70.3262 72.7619 70.09 72.4784 70.09 72.1477V66.3911Z" fill="#81CEB2" stroke="#81CEB2" stroke-width="0.2"/>
<path d="M44.8703 61.5812C42.2139 61.5812 40.0604 63.7347 40.0604 66.3911V71.4841C40.0604 72.5822 40.7896 73.5468 41.8461 73.8461L44.176 74.5062C44.6382 74.6372 45.1285 74.6297 45.5864 74.4847L47.9664 73.731C48.9868 73.4079 49.6803 72.4609 49.6803 71.3906V66.3911C49.6803 63.7347 47.5268 61.5812 44.8703 61.5812ZM41.8304 66.3911C41.8304 64.7122 43.1914 63.3512 44.8703 63.3512C46.5493 63.3512 47.9103 64.7122 47.9103 66.3911V71.3906C47.9103 71.6892 47.7168 71.9534 47.4321 72.0436L45.0521 72.7973C44.9243 72.8377 44.7875 72.8398 44.6585 72.8033L42.3286 72.1432C42.0338 72.0596 41.8304 71.7905 41.8304 71.4841V66.3911Z" fill="#81CEB2" stroke="#81CEB2" stroke-width="0.2"/>
<path d="M41.7862 71.1992L41.8288 71.1694V71.1173V66.2047C41.8288 63.6512 39.7588 61.5812 37.2054 61.5812C34.4787 61.5812 32.3442 63.9287 32.6027 66.643L33.0275 71.1033L33.0313 71.1429L33.0612 71.169L35.5101 73.3118C36.3604 74.0558 37.6088 74.1234 38.5345 73.4754L41.7862 71.1992ZM34.3648 66.4752C34.2052 64.8 35.5226 63.3512 37.2054 63.3512C38.7813 63.3512 40.0588 64.6287 40.0588 66.2047V70.2478L37.5195 72.0254C37.2612 72.2062 36.9129 72.1873 36.6756 71.9797L34.7266 70.2743L34.3648 66.4752Z" fill="#81CEB2" stroke="#81CEB2" stroke-width="0.2"/>
<path d="M84.9375 71.169L84.9674 71.1429L84.9712 71.1033L85.396 66.643C85.6545 63.9287 83.52 61.5812 80.7934 61.5812C78.2399 61.5812 76.1699 63.6512 76.1699 66.2047V71.1173V71.1694L76.2126 71.1992L79.4642 73.4754C80.3899 74.1234 81.6383 74.0558 82.4887 73.3118L84.9375 71.169ZM77.9399 66.2047C77.9399 64.6287 79.2174 63.3512 80.7934 63.3512C82.4762 63.3512 83.7935 64.8 83.634 66.4752L83.2722 70.2743L81.3231 71.9797C81.0859 72.1873 80.7375 72.2062 80.4792 72.0254L77.9399 70.2478V66.2047Z" fill="#81CEB2" stroke="#81CEB2" stroke-width="0.2"/>
<path d="M35.4505 56.1863C35.4505 55.9695 35.6262 55.7938 35.843 55.7938H38.983C39.1997 55.7938 39.3754 55.9695 39.3754 56.1863V57.7563C39.3754 57.9731 39.1997 58.1488 38.983 58.1488H35.843C35.6262 58.1488 35.4505 57.9731 35.4505 57.7563V56.1863Z" fill="white"/>
<path fill-rule="evenodd" clip-rule="evenodd" d="M34.6655 56.1863C34.6655 55.536 35.1926 55.0089 35.8429 55.0089H38.9829C39.6332 55.0089 40.1604 55.536 40.1604 56.1863V57.7563C40.1604 58.4066 39.6332 58.9338 38.9829 58.9338H35.8429C35.1926 58.9338 34.6655 58.4066 34.6655 57.7563V56.1863ZM36.2354 56.5788V57.3638H38.5904V56.5788H36.2354Z" fill="#81CEB2"/>
<path d="M49.5803 56.1863C49.5803 55.9695 49.756 55.7938 49.9728 55.7938H53.1127C53.3295 55.7938 53.5052 55.9695 53.5052 56.1863V57.7563C53.5052 57.9731 53.3295 58.1488 53.1127 58.1488H49.9728C49.756 58.1488 49.5803 57.9731 49.5803 57.7563V56.1863Z" fill="white"/>
<path fill-rule="evenodd" clip-rule="evenodd" d="M48.7953 56.1863C48.7953 55.536 49.3225 55.0089 49.9728 55.0089H53.1127C53.763 55.0089 54.2902 55.536 54.2902 56.1863V57.7563C54.2902 58.4066 53.763 58.9338 53.1127 58.9338H49.9728C49.3225 58.9338 48.7953 58.4066 48.7953 57.7563V56.1863ZM50.3653 56.5788V57.3638H52.7202V56.5788H50.3653Z" fill="#81CEB2"/>
<path d="M63.7101 56.1863C63.7101 55.9695 63.8858 55.7938 64.1026 55.7938H67.2425C67.4593 55.7938 67.635 55.9695 67.635 56.1863V57.7563C67.635 57.9731 67.4593 58.1488 67.2425 58.1488H64.1026C63.8858 58.1488 63.7101 57.9731 63.7101 57.7563V56.1863Z" fill="white"/>
<path fill-rule="evenodd" clip-rule="evenodd" d="M62.9251 56.1863C62.9251 55.536 63.4523 55.0089 64.1026 55.0089H67.2425C67.8929 55.0089 68.42 55.536 68.42 56.1863V57.7563C68.42 58.4066 67.8929 58.9338 67.2425 58.9338H64.1026C63.4523 58.9338 62.9251 58.4066 62.9251 57.7563V56.1863ZM64.4951 56.5788V57.3638H66.8501V56.5788H64.4951Z" fill="#81CEB2"/>
<path d="M77.8398 56.1863C77.8398 55.9695 78.0156 55.7938 78.2323 55.7938H81.3723C81.5891 55.7938 81.7648 55.9695 81.7648 56.1863V57.7563C81.7648 57.9731 81.5891 58.1488 81.3723 58.1488H78.2323C78.0156 58.1488 77.8398 57.9731 77.8398 57.7563V56.1863Z" fill="white"/>
<path fill-rule="evenodd" clip-rule="evenodd" d="M77.0549 56.1863C77.0549 55.536 77.5821 55.0089 78.2324 55.0089H81.3724C82.0227 55.0089 82.5499 55.536 82.5499 56.1863V57.7563C82.5499 58.4066 82.0227 58.9338 81.3724 58.9338H78.2324C77.5821 58.9338 77.0549 58.4066 77.0549 57.7563V56.1863ZM78.6249 56.5788V57.3638H80.9799V56.5788H78.6249Z" fill="#81CEB2"/>
</g>
<defs>
<filter id="filter0_d_12_304" x="0" y="0" width="118" height="118" filterUnits="userSpaceOnUse" color-interpolation-filters="sRGB">
<feFlood flood-opacity="0" result="BackgroundImageFix"/>
<feColorMatrix in="SourceAlpha" type="matrix" values="0 0 0 0 0 0 0 0 0 0 0 0 0 0 0 0 0 0 127 0" result="hardAlpha"/>
<feOffset/>
<feGaussianBlur stdDeviation="8"/>
<feComposite in2="hardAlpha" operator="out"/>
<feColorMatrix type="matrix" values="0 0 0 0 0.513021 0 0 0 0 0.602604 0 0 0 0 0.625 0 0 0 0.1 0"/>
<feBlend mode="normal" in2="BackgroundImageFix" result="effect1_dropShadow_12_304"/>
<feBlend mode="normal" in="SourceGraphic" in2="effect1_dropShadow_12_304" result="shape"/>
</filter>
</defs>
</svg>
