<svg width="118" height="118" viewBox="0 0 118 118" fill="none" xmlns="http://www.w3.org/2000/svg">
<g filter="url(#filter0_d_12_244)">
<rect x="16" y="16" width="86" height="86" rx="43" fill="white"/>
<path d="M81.1667 55.5H80.196C80.8325 53.6207 81.1603 51.6508 81.1667 49.6666C81.1667 41.6306 76.8057 36.8333 69.5 36.8333C65.7209 36.9379 62.0453 38.0906 58.8834 40.163C55.8244 38.5378 52.2089 36.8333 48.5 36.8333C41.1944 36.8333 36.8334 41.6306 36.8334 49.6666C36.8398 51.6508 37.1676 53.6207 37.804 55.5H36.8334C36.5239 55.5 36.2272 55.6229 36.0084 55.8417C35.7896 56.0605 35.6667 56.3572 35.6667 56.6666C35.6667 56.9761 35.7896 57.2728 36.0084 57.4916C36.2272 57.7104 36.5239 57.8333 36.8334 57.8333H38.7C39.3032 59.1971 39.9915 60.4933 40.6729 61.7708C42.1616 64.2183 43.2358 66.8949 43.852 69.6925C44.5632 73.7676 46.1961 77.6263 48.626 80.9741C48.9305 81.4326 49.2094 81.8492 49.4427 82.2353C49.6763 82.6226 50.0063 82.9427 50.4005 83.1643C50.7948 83.386 51.2398 83.5016 51.692 83.5C52.3923 83.4991 53.0636 83.2205 53.5587 82.7253C54.0539 82.2302 54.3324 81.5589 54.3334 80.8587V73C54.3334 71.7623 54.825 70.5753 55.7002 69.7001C56.5754 68.825 57.7623 68.3333 59 68.3333C60.2377 68.3333 61.4247 68.825 62.2999 69.7001C63.175 70.5753 63.6667 71.7623 63.6667 73V80.8587C63.6676 81.5589 63.9462 82.2302 64.4413 82.7253C64.9365 83.2205 65.6078 83.4991 66.308 83.5C66.7604 83.502 67.2055 83.3865 67.5998 83.1648C67.994 82.9431 68.324 82.6228 68.5574 82.2353C68.7907 81.8492 69.0719 81.4326 69.374 80.9741C71.803 77.626 73.4355 73.7673 74.1469 69.6925C74.7636 66.895 75.8377 64.2185 77.326 61.7708C78.0167 60.4933 78.6992 59.1971 79.3 57.8333H81.1667C81.4761 57.8333 81.7729 57.7104 81.9916 57.4916C82.2104 57.2728 82.3334 56.9761 82.3334 56.6666C82.3334 56.3572 82.2104 56.0605 81.9916 55.8417C81.7729 55.6229 81.4761 55.5 81.1667 55.5ZM75.2704 60.673C73.6601 63.3416 72.5042 66.259 71.8497 69.3063C71.195 73.0571 69.6847 76.6065 67.4362 79.6791C67.1107 80.1668 66.8155 80.6125 66.5647 81.0196C66.5263 81.0702 66.4736 81.1081 66.4134 81.1282C66.3532 81.1483 66.2883 81.1497 66.2273 81.1323C66.1662 81.1149 66.1119 81.0794 66.0713 81.0306C66.0308 80.9818 66.0059 80.9218 66 80.8587V73C66 71.1435 65.2625 69.363 63.9498 68.0502C62.637 66.7375 60.8565 66 59 66C57.1435 66 55.363 66.7375 54.0503 68.0502C52.7375 69.363 52 71.1435 52 73V80.8587C51.9946 80.9222 51.97 80.9827 51.9294 81.0319C51.8889 81.0812 51.8343 81.117 51.773 81.1346C51.7116 81.1522 51.6464 81.1507 51.5859 81.1304C51.5254 81.1101 51.4725 81.0719 51.4342 81.0208C51.1845 80.6113 50.8894 80.168 50.565 79.6803C48.3156 76.6081 46.8049 73.0585 46.1504 69.3075C45.4958 66.2602 44.3399 63.3428 42.7297 60.6741C42.2222 59.7221 41.7264 58.7841 41.269 57.8345H49.6667V59.0011C49.6667 60.2388 50.1584 61.4258 51.0335 62.301C51.9087 63.1761 53.0957 63.6678 54.3334 63.6678H63.6667C64.9044 63.6678 66.0914 63.1761 66.9665 62.301C67.8417 61.4258 68.3334 60.2388 68.3334 59.0011V57.8333H76.7334C76.2646 58.7895 75.7769 59.7362 75.2704 60.673ZM52 59V54.3333C52 53.7145 52.2459 53.121 52.6834 52.6834C53.121 52.2458 53.7145 52 54.3334 52H63.6667C64.2855 52 64.879 52.2458 65.3166 52.6834C65.7542 53.121 66 53.7145 66 54.3333V59C66 59.6188 65.7542 60.2123 65.3166 60.6499C64.879 61.0875 64.2855 61.3333 63.6667 61.3333H54.3334C53.7145 61.3333 53.121 61.0875 52.6834 60.6499C52.2459 60.2123 52 59.6188 52 59ZM77.7414 55.5H68.3334V54.3333C68.3334 53.0956 67.8417 51.9087 66.9665 51.0335C66.0914 50.1583 64.9044 49.6666 63.6667 49.6666H54.3334C53.0957 49.6666 51.9087 50.1583 51.0335 51.0335C50.1584 51.9087 49.6667 53.0956 49.6667 54.3333V55.5H40.2599C39.5441 53.6381 39.1736 51.6614 39.1667 49.6666C39.1667 42.9933 42.5687 39.1666 48.5 39.1666C52.147 39.1666 55.9749 41.2363 59.0525 42.9C60.4106 43.6931 61.8303 44.3755 63.298 44.9405C63.592 45.0383 63.9127 45.0153 64.1897 44.8765C64.4667 44.7378 64.6772 44.4948 64.775 44.2008C64.8728 43.9069 64.8498 43.5861 64.7111 43.3091C64.5724 43.0321 64.3293 42.8216 64.0354 42.7238C63.0882 42.3713 62.1699 41.9453 61.289 41.4498C63.7979 40.0282 66.6174 39.2442 69.5 39.1666C75.4314 39.1666 78.8334 42.9933 78.8334 49.6666C78.8262 51.6612 78.4562 53.6379 77.7414 55.5Z" fill="#81CEB2"/>
</g>
<defs>
<filter id="filter0_d_12_244" x="0" y="0" width="118" height="118" filterUnits="userSpaceOnUse" color-interpolation-filters="sRGB">
<feFlood flood-opacity="0" result="BackgroundImageFix"/>
<feColorMatrix in="SourceAlpha" type="matrix" values="0 0 0 0 0 0 0 0 0 0 0 0 0 0 0 0 0 0 127 0" result="hardAlpha"/>
<feOffset/>
<feGaussianBlur stdDeviation="8"/>
<feComposite in2="hardAlpha" operator="out"/>
<feColorMatrix type="matrix" values="0 0 0 0 0.513021 0 0 0 0 0.602604 0 0 0 0 0.625 0 0 0 0.1 0"/>
<feBlend mode="normal" in2="BackgroundImageFix" result="effect1_dropShadow_12_244"/>
<feBlend mode="normal" in="SourceGraphic" in2="effect1_dropShadow_12_244" result="shape"/>
</filter>
</defs>
</svg>
