<svg width="118" height="118" viewBox="0 0 118 118" fill="none" xmlns="http://www.w3.org/2000/svg">
<g filter="url(#filter0_d_12_249)">
<rect x="16" y="16" width="86" height="86" rx="43" fill="white"/>
<path d="M74.5085 34.8418L68.6752 40.6752C68.4564 40.8939 68.3334 41.1906 68.3333 41.5V54.5923C67.6008 55.2005 66.9295 55.8788 66.329 56.6177C65.362 57.9124 64.8376 59.484 64.8333 61.1V80C64.8333 80.9282 65.2021 81.8185 65.8585 82.4749C66.5148 83.1312 67.4051 83.5 68.3333 83.5H70.6667C71.5949 83.5 72.4852 83.1312 73.1415 82.4749C73.7979 81.8185 74.1667 80.9282 74.1667 80V61.1C74.1632 59.4828 73.6387 57.9098 72.671 56.6142C72.07 55.8768 71.3988 55.1997 70.6667 54.5923V41.983L76.1582 36.4915C76.2696 36.3839 76.3585 36.2551 76.4196 36.1128C76.4808 35.9705 76.5129 35.8174 76.5143 35.6625C76.5156 35.5076 76.4861 35.3539 76.4275 35.2105C76.3688 35.0672 76.2822 34.9369 76.1726 34.8274C76.0631 34.7178 75.9328 34.6312 75.7894 34.5725C75.6461 34.5139 75.4924 34.4844 75.3375 34.4857C75.1826 34.487 75.0295 34.5192 74.8872 34.5804C74.7449 34.6415 74.6161 34.7304 74.5085 34.8418ZM71.8333 80C71.8333 80.3094 71.7104 80.6062 71.4916 80.8249C71.2728 81.0437 70.9761 81.1667 70.6667 81.1667H68.3333C68.0239 81.1667 67.7272 81.0437 67.5084 80.8249C67.2896 80.6062 67.1667 80.3094 67.1667 80V77.6667L71.8333 77.6807V80ZM71.8333 75.3508L67.1667 75.3333V69.5L71.8333 69.514V75.3508ZM70.8043 58.0165C71.4695 58.9072 71.8303 59.9883 71.8333 61.1V67.1807L67.1667 67.1667V61.1C67.1695 59.9872 67.5303 58.9049 68.1957 58.013L69.0333 56.9C69.0877 56.8275 69.1581 56.7687 69.2391 56.7282C69.3201 56.6877 69.4094 56.6667 69.5 56.6667C69.5906 56.6667 69.6799 56.6877 69.7609 56.7282C69.8419 56.7687 69.9123 56.8275 69.9667 56.9L70.8043 58.0165ZM48.5 34.5C46.7519 34.5101 45.0708 35.174 43.7875 36.361C42.5041 37.548 41.7114 39.1722 41.5651 40.9142C41.4188 42.6562 41.9297 44.3899 42.9971 45.7743C44.0646 47.1586 45.6114 48.0935 47.3333 48.395V58.0923C46.6008 58.7005 45.9295 59.3788 45.329 60.1177C44.362 61.4124 43.8376 62.984 43.8333 64.6V80C43.8333 80.9282 44.2021 81.8185 44.8585 82.4749C45.5148 83.1312 46.4051 83.5 47.3333 83.5H49.6667C50.5949 83.5 51.4852 83.1312 52.1415 82.4749C52.7979 81.8185 53.1667 80.9282 53.1667 80V64.6C53.1632 62.9828 52.6387 61.4098 51.671 60.1142C51.07 59.3768 50.3988 58.6997 49.6667 58.0923V48.395C51.3886 48.0935 52.9354 47.1586 54.0029 45.7743C55.0703 44.3899 55.5812 42.6562 55.4349 40.9142C55.2886 39.1722 54.4959 37.548 53.2125 36.361C51.9292 35.174 50.2481 34.5101 48.5 34.5ZM50.8333 80C50.8333 80.3094 50.7104 80.6062 50.4916 80.8249C50.2728 81.0437 49.9761 81.1667 49.6667 81.1667H47.3333C47.0239 81.1667 46.7272 81.0437 46.5084 80.8249C46.2896 80.6062 46.1667 80.3094 46.1667 80V77.6667L50.8333 77.6807V80ZM50.8333 75.3508L46.1667 75.3333V69.5L50.8333 69.514V75.3508ZM49.8043 61.5165C50.4695 62.4072 50.8303 63.4883 50.8333 64.6V67.1807L46.1667 67.1667V64.6C46.1695 63.4872 46.5303 62.4049 47.1957 61.513L48.0333 60.4C48.0877 60.3275 48.1581 60.2687 48.2391 60.2282C48.3201 60.1877 48.4094 60.1667 48.5 60.1667C48.5906 60.1667 48.6799 60.1877 48.7609 60.2282C48.8419 60.2687 48.9123 60.3275 48.9667 60.4L49.8043 61.5165ZM48.5 46.1667C47.577 46.1667 46.6748 45.893 45.9073 45.3802C45.1399 44.8674 44.5418 44.1386 44.1886 43.2858C43.8354 42.4331 43.7429 41.4948 43.923 40.5896C44.1031 39.6843 44.5475 38.8528 45.2002 38.2002C45.8528 37.5475 46.6843 37.1031 47.5896 36.923C48.4948 36.7429 49.4331 36.8353 50.2859 37.1886C51.1386 37.5418 51.8674 38.1399 52.3802 38.9073C52.893 39.6748 53.1667 40.577 53.1667 41.5C53.1667 42.7377 52.675 43.9247 51.7998 44.7998C50.9247 45.675 49.7377 46.1667 48.5 46.1667Z" fill="#81CEB2"/>
</g>
<defs>
<filter id="filter0_d_12_249" x="0" y="0" width="118" height="118" filterUnits="userSpaceOnUse" color-interpolation-filters="sRGB">
<feFlood flood-opacity="0" result="BackgroundImageFix"/>
<feColorMatrix in="SourceAlpha" type="matrix" values="0 0 0 0 0 0 0 0 0 0 0 0 0 0 0 0 0 0 127 0" result="hardAlpha"/>
<feOffset/>
<feGaussianBlur stdDeviation="8"/>
<feComposite in2="hardAlpha" operator="out"/>
<feColorMatrix type="matrix" values="0 0 0 0 0.513021 0 0 0 0 0.602604 0 0 0 0 0.625 0 0 0 0.1 0"/>
<feBlend mode="normal" in2="BackgroundImageFix" result="effect1_dropShadow_12_249"/>
<feBlend mode="normal" in="SourceGraphic" in2="effect1_dropShadow_12_249" result="shape"/>
</filter>
</defs>
</svg>
