<svg width="118" height="118" viewBox="0 0 118 118" fill="none" xmlns="http://www.w3.org/2000/svg">
<g filter="url(#filter0_d_12_254)">
<rect x="16" y="16" width="86" height="86" rx="43" fill="white"/>
<path d="M38 49.6667C38 54.5784 39.9507 58.2347 41.8372 61.7709C43.3254 64.2186 44.3996 66.8951 45.0163 69.6925C45.728 73.7676 47.3604 77.6266 49.7892 80.9754C50.0948 81.4327 50.3725 81.8492 50.6058 82.2365C50.9052 82.7292 51.3577 83.1102 51.8941 83.3214C52.4305 83.5326 53.0212 83.5624 53.5762 83.4062C54.1311 83.25 54.6195 82.9164 54.967 82.4563C55.3144 81.9963 55.5016 81.4352 55.5 80.8587V73C55.5 71.7623 55.9917 70.5754 56.8668 69.7002C57.742 68.825 58.929 68.3334 60.1667 68.3334C61.4043 68.3334 62.5913 68.825 63.4665 69.7002C64.3417 70.5754 64.8333 71.7623 64.8333 73V80.8587C64.8343 81.5589 65.1128 82.2302 65.608 82.7254C66.1031 83.2205 66.7744 83.4991 67.4747 83.5C67.9271 83.5018 68.3723 83.3862 68.7667 83.1645C69.1612 82.9429 69.4914 82.6227 69.7252 82.2354C69.9585 81.8492 70.2385 81.4327 70.5418 80.9754C72.9706 77.6266 74.603 73.7676 75.3147 69.6925C75.9314 66.8951 77.0056 64.2186 78.4938 61.7709C80.3827 58.2347 82.3333 54.5784 82.3333 49.6667C82.3333 41.6307 77.9723 36.8334 70.6667 36.8334C66.8875 36.9377 63.2118 38.0905 60.05 40.163C56.991 38.5379 53.3755 36.8334 49.6667 36.8334C48.6833 36.8382 47.7032 36.9477 46.743 37.16L44.9055 32.8737C44.8155 32.6639 44.666 32.4852 44.4754 32.3596C44.2848 32.2339 44.0616 32.167 43.8333 32.167C43.6051 32.167 43.3818 32.2339 43.1913 32.3596C43.0007 32.4852 42.8512 32.6639 42.7612 32.8737L39.7943 39.7944L32.8737 42.7612C32.6639 42.8512 32.4851 43.0007 32.3595 43.1913C32.2339 43.3819 32.167 43.6051 32.167 43.8334C32.167 44.0616 32.2339 44.2848 32.3595 44.4754C32.4851 44.666 32.6639 44.8155 32.8737 44.9055L38.1703 47.1759C38.0606 48.0017 38.0037 48.8336 38 49.6667ZM49.6667 39.1667C53.3137 39.1667 57.1427 41.2364 60.218 42.9C61.5764 43.6932 62.9966 44.3756 64.4647 44.9405C64.7586 45.0383 65.0794 45.0153 65.3564 44.8766C65.6333 44.7379 65.8439 44.4948 65.9417 44.2009C66.0394 43.9069 66.0164 43.5862 65.8777 43.3092C65.739 43.0322 65.4959 42.8216 65.202 42.7239C64.2544 42.3713 63.3358 41.9454 62.4545 41.4499C64.9639 40.0284 67.7837 39.2444 70.6667 39.1667C76.598 39.1667 80 42.9934 80 49.6667C80 53.995 78.2698 57.2395 76.4382 60.673C74.8271 63.3413 73.6707 66.2589 73.0163 69.3064C72.3615 73.0577 70.8509 76.6076 68.6017 79.6804C68.2785 80.1669 67.9822 80.6137 67.7337 81.0197C67.6952 81.0705 67.6423 81.1086 67.5819 81.1288C67.5215 81.1491 67.4564 81.1506 67.3951 81.1332C67.3338 81.1158 67.2792 81.0803 67.2384 81.0313C67.1976 80.9823 67.1726 80.9221 67.1667 80.8587V73C67.1667 71.1435 66.4292 69.363 65.1164 68.0503C63.8037 66.7375 62.0232 66 60.1667 66C58.3101 66 56.5297 66.7375 55.2169 68.0503C53.9042 69.363 53.1667 71.1435 53.1667 73V80.8587C53.1606 80.9219 53.1357 80.9819 53.0951 81.0308C53.0545 81.0797 53.0001 81.1152 52.939 81.1327C52.8779 81.1502 52.813 81.1489 52.7527 81.1289C52.6924 81.109 52.6394 81.0713 52.6008 81.0209C52.3512 80.6114 52.0548 80.168 51.7317 79.6815C49.4824 76.6087 47.9718 73.0588 47.317 69.3075C46.6626 66.26 45.5062 63.3425 43.8952 60.6742C42.0635 57.2395 40.3333 53.995 40.3333 49.6667C40.3333 49.4987 40.3497 49.3424 40.3543 49.1767L42.7612 54.793C42.8512 55.0028 43.0007 55.1815 43.1913 55.3072C43.3818 55.4328 43.6051 55.4997 43.8333 55.4997C44.0616 55.4997 44.2848 55.4328 44.4754 55.3072C44.666 55.1815 44.8155 55.0028 44.9055 54.793L47.8723 47.8724L54.793 44.9055C55.0028 44.8155 55.1815 44.666 55.3071 44.4754C55.4327 44.2848 55.4997 44.0616 55.4997 43.8334C55.4997 43.6051 55.4327 43.3819 55.3071 43.1913C55.1815 43.0007 55.0028 42.8512 54.793 42.7612L47.8723 39.7944L47.6833 39.3475C48.3382 39.2317 49.0016 39.1712 49.6667 39.1667ZM36.2955 43.8334L41.143 41.7555C41.4182 41.6375 41.6375 41.4182 41.7555 41.143L43.8333 36.2955L45.9112 41.143C46.0292 41.4182 46.2485 41.6375 46.5237 41.7555L51.3712 43.8334L46.5237 45.9112C46.2485 46.0292 46.0292 46.2485 45.9112 46.5237L43.8333 51.3712L41.7555 46.5237C41.6375 46.2485 41.4182 46.0292 41.143 45.9112L36.2955 43.8334Z" fill="#81CEB2"/>
</g>
<defs>
<filter id="filter0_d_12_254" x="0" y="0" width="118" height="118" filterUnits="userSpaceOnUse" color-interpolation-filters="sRGB">
<feFlood flood-opacity="0" result="BackgroundImageFix"/>
<feColorMatrix in="SourceAlpha" type="matrix" values="0 0 0 0 0 0 0 0 0 0 0 0 0 0 0 0 0 0 127 0" result="hardAlpha"/>
<feOffset/>
<feGaussianBlur stdDeviation="8"/>
<feComposite in2="hardAlpha" operator="out"/>
<feColorMatrix type="matrix" values="0 0 0 0 0.513021 0 0 0 0 0.602604 0 0 0 0 0.625 0 0 0 0.1 0"/>
<feBlend mode="normal" in2="BackgroundImageFix" result="effect1_dropShadow_12_254"/>
<feBlend mode="normal" in="SourceGraphic" in2="effect1_dropShadow_12_254" result="shape"/>
</filter>
</defs>
</svg>
