<svg width="118" height="118" viewBox="0 0 118 118" fill="none" xmlns="http://www.w3.org/2000/svg">
<g filter="url(#filter0_d_12_259)">
<rect x="16" y="16" width="86" height="86" rx="43" fill="white"/>
<g clip-path="url(#clip0_12_259)">
<path d="M38.3207 61.9296L38.3209 61.9294L38.314 61.9259C38.1969 61.8674 38.0199 61.8077 37.8385 61.8077C37.8349 61.8077 37.8312 61.8077 37.8275 61.8077C37.7561 61.8076 37.6673 61.8075 37.5918 61.8452C37.5142 61.884 37.4645 61.9531 37.4327 62.0493C37.0739 62.1957 36.6232 62.2923 36.2231 62.2923C34.5553 62.2923 33.2 60.9371 33.2 59.2692C33.2 57.6014 34.5553 56.2462 36.2231 56.2462C36.6378 56.2462 37.0551 56.35 37.4222 56.5073L37.4244 56.5082C37.7184 56.6258 38.021 56.6271 38.3207 56.4473C38.6172 56.2694 38.7933 55.9742 38.8519 55.6812L38.852 55.6812L38.8525 55.678C40.5136 45.7115 49.0867 38.5308 59.2154 38.5308C69.2872 38.5308 77.8052 45.7074 79.5232 55.5629C79.5279 55.8809 79.7805 56.12 79.9939 56.28L80.0045 56.2879L80.0167 56.2929C80.294 56.4038 80.5922 56.4682 80.8959 56.3478C81.2076 56.2442 81.5192 56.1923 81.8846 56.1923C83.5525 56.1923 84.9077 57.5475 84.9077 59.2154C84.9077 60.8832 83.5525 62.2385 81.8846 62.2385C81.5259 62.2385 81.163 62.136 80.8421 62.0291C80.5553 61.9153 80.196 61.908 79.9442 62.0938C79.6572 62.2673 79.4772 62.504 79.4173 62.8035L79.417 62.8051C77.649 72.5027 69.0759 79.5231 59.1616 79.5231C49.1404 79.5231 40.6205 72.3959 38.8523 62.6437L38.8519 62.6419C38.7917 62.341 38.6103 62.1034 38.3207 61.9296ZM36.1693 64.2692C36.4701 64.2692 36.7697 64.2239 37.0621 64.1756C39.4216 74.3503 48.5395 81.6077 59.1616 81.6077C69.7281 81.6077 78.8449 74.3526 81.1528 64.2334C81.3583 64.2692 81.5894 64.2692 81.7706 64.2692H81.777C84.5776 64.2692 86.8846 62.0175 86.8846 59.1615C86.8846 56.3056 84.5776 54.0538 81.777 54.0538C81.6949 54.0538 81.6018 54.0664 81.511 54.0785L81.4878 54.0816C81.4135 54.0916 81.3389 54.1009 81.2649 54.1052C79.0166 43.7629 69.8415 36.3923 59.1077 36.3923C48.3777 36.3923 39.2059 43.811 36.9532 54.147C36.9446 54.1456 36.936 54.1441 36.9274 54.1426C36.6562 54.0964 36.4065 54.0538 36.1154 54.0538C33.3133 54.0538 31.0616 56.307 31.0616 59.1615C31.0616 62.0175 33.3686 64.2692 36.1693 64.2692Z" fill="#81CEB2" stroke="#81CEB2" stroke-width="0.2"/>
<path d="M65.9385 63.2014V63.2C65.9385 62.6063 65.463 62.1308 64.8693 62.1308H52.9693C52.3756 62.1308 51.9 62.6063 51.9 63.2C51.9 67.0773 55.013 70.2462 58.8923 70.2462C62.7719 70.2462 65.8839 67.0773 65.9385 63.2014ZM60.0099 45.8452L60.0099 45.8452L60.011 45.8447C62.0422 44.9115 62.5555 43.3049 62.2743 42.1233C61.9413 40.6811 60.611 39.5692 59.1616 39.5692C56.844 39.5692 54.9154 41.4995 54.9154 43.8692C54.9154 46.616 57.1133 48.8154 59.8077 48.8154C62.9343 48.8154 65.453 46.238 65.5077 43.0633L65.5077 43.0633V43.0615C65.5077 39.3997 62.5563 36.3923 58.8923 36.3923C58.2987 36.3923 57.8231 36.8679 57.8231 37.4615C57.8231 38.0552 58.2987 38.5308 58.8923 38.5308C61.3671 38.5308 63.4231 40.5852 63.4231 43.1154C63.4231 45.1063 61.7987 46.7308 59.8077 46.7308C58.2499 46.7308 57 45.4318 57 43.8692C57 42.6306 57.9799 41.6538 59.1616 41.6538C59.6531 41.6538 60.1499 42.0517 60.2481 42.5427C60.3205 42.9046 60.1786 43.1958 59.9514 43.4293C59.7221 43.665 59.4125 43.8338 59.1748 43.9394C58.6411 44.1766 58.401 44.7734 58.6394 45.3098C58.8766 45.8435 59.4734 46.0837 60.0099 45.8452ZM52.277 55.8769C52.277 56.4706 52.7525 56.9462 53.3462 56.9462C53.9319 56.9462 54.4229 56.4746 54.3077 55.8672C54.3024 53.6625 52.4828 51.8462 50.277 51.8462C48.0679 51.8462 46.2462 53.6678 46.2462 55.8769C46.2462 56.4706 46.7217 56.9462 47.3154 56.9462C47.9091 56.9462 48.3847 56.4706 48.3847 55.8769C48.3847 54.8014 49.2553 53.9308 50.3308 53.9308C51.4063 53.9308 52.277 54.8014 52.277 55.8769ZM69.2923 55.8769C69.2923 56.4706 69.7679 56.9462 70.3616 56.9462C70.9473 56.9462 71.4383 56.4746 71.3231 55.8672C71.3178 53.6625 69.4982 51.8462 67.2923 51.8462C65.0833 51.8462 63.2616 53.6678 63.2616 55.8769C63.2616 56.4706 63.7371 56.9462 64.3308 56.9462C64.9245 56.9462 65.4 56.4706 65.4 55.8769C65.4 54.8014 66.2707 53.9308 67.3462 53.9308C68.4217 53.9308 69.2923 54.8014 69.2923 55.8769ZM58.8923 68.1077C56.5067 68.1077 54.529 66.4261 54.0604 64.2154H63.7216C63.2032 66.4285 61.2756 68.1077 58.8923 68.1077Z" fill="#81CEB2" stroke="#81CEB2" stroke-width="0.2"/>
</g>
</g>
<defs>
<filter id="filter0_d_12_259" x="0" y="0" width="118" height="118" filterUnits="userSpaceOnUse" color-interpolation-filters="sRGB">
<feFlood flood-opacity="0" result="BackgroundImageFix"/>
<feColorMatrix in="SourceAlpha" type="matrix" values="0 0 0 0 0 0 0 0 0 0 0 0 0 0 0 0 0 0 127 0" result="hardAlpha"/>
<feOffset/>
<feGaussianBlur stdDeviation="8"/>
<feComposite in2="hardAlpha" operator="out"/>
<feColorMatrix type="matrix" values="0 0 0 0 0.513021 0 0 0 0 0.602604 0 0 0 0 0.625 0 0 0 0.1 0"/>
<feBlend mode="normal" in2="BackgroundImageFix" result="effect1_dropShadow_12_259"/>
<feBlend mode="normal" in="SourceGraphic" in2="effect1_dropShadow_12_259" result="shape"/>
</filter>
<clipPath id="clip0_12_259">
<rect width="56" height="56" fill="white" transform="translate(31 31)"/>
</clipPath>
</defs>
</svg>
