<svg width="118" height="118" viewBox="0 0 118 118" fill="none" xmlns="http://www.w3.org/2000/svg">
<g filter="url(#filter0_d_12_264)">
<rect x="16" y="16" width="86" height="86" rx="43" fill="white"/>
<path d="M64.2499 49.6667C62.2677 49.7101 60.3336 50.2855 58.6499 51.3327C57.2118 50.3158 55.5099 49.7371 53.7499 49.6667C49.7914 49.6667 47.3333 52.2334 47.3333 56.3622C47.4078 59.242 48.1498 62.0651 49.5009 64.6094C50.4655 66.6567 51.2524 68.7832 51.8529 70.9654C52.0079 71.5499 52.3522 72.0666 52.832 72.4347C53.3118 72.8029 53.9 73.0017 54.5048 73H54.5269C55.2507 72.9914 55.942 72.6985 56.4515 72.1844C56.961 71.6703 57.2478 70.9763 57.2499 70.2525V67.421C57.2688 67.212 57.3296 67.009 57.4285 66.8239C57.5274 66.6388 57.6624 66.4755 57.8256 66.3436C57.9889 66.2117 58.1769 66.114 58.3786 66.0562C58.5803 65.9983 58.7916 65.9816 58.9999 66.007C59.2082 65.9816 59.4195 65.9983 59.6212 66.0562C59.8229 66.114 60.011 66.2117 60.1742 66.3436C60.3374 66.4755 60.4725 66.6388 60.5714 66.8239C60.6703 67.009 60.731 67.212 60.7499 67.421V70.2525C60.7523 70.9764 61.0394 71.6704 61.5491 72.1844C62.0588 72.6985 62.7502 72.9914 63.4741 73H63.4974C64.1018 73.0011 64.6895 72.8021 65.1688 72.434C65.6481 72.0659 65.992 71.5495 66.1469 70.9654C66.7474 68.7832 67.5343 66.6567 68.4989 64.6094C69.85 62.0651 70.5921 59.242 70.6666 56.3622C70.6666 52.2334 68.2084 49.6667 64.2499 49.6667ZM66.3663 63.6597C65.3498 65.8212 64.5219 68.0664 63.8918 70.3704C63.8686 70.4567 63.8171 70.5328 63.7457 70.5865C63.6742 70.6402 63.5868 70.6684 63.4974 70.6667C63.3882 70.6655 63.2838 70.6214 63.2067 70.5439C63.1297 70.4664 63.0862 70.3618 63.0856 70.2525V67.421C63.0742 66.9032 62.9582 66.3931 62.7445 65.9213C62.5309 65.4494 62.224 65.0258 61.8423 64.6757C61.4606 64.3256 61.012 64.0563 60.5235 63.8841C60.035 63.7119 59.5168 63.6404 58.9999 63.6737C58.4832 63.6407 57.9652 63.7125 57.477 63.8849C56.9888 64.0572 56.5405 64.3265 56.1591 64.6766C55.7777 65.0266 55.471 65.4502 55.2574 65.9218C55.0439 66.3935 54.928 66.9034 54.9166 67.421V70.2525C54.9163 70.3615 54.8732 70.4659 54.7966 70.5434C54.72 70.6209 54.616 70.6652 54.5071 70.6667C54.4176 70.6685 54.33 70.6403 54.2583 70.5866C54.1866 70.5329 54.135 70.4568 54.1116 70.3704C53.4814 68.0664 52.6535 65.8212 51.6371 63.6597C50.4251 61.4122 49.7506 58.9143 49.6666 56.3622C49.6666 52.7572 51.8833 52 53.7499 52C55.484 52.1765 57.123 52.8778 58.4481 54.0102C59.2436 54.6645 60.166 55.1471 61.1571 55.4277C61.4619 55.4814 61.7755 55.4118 62.029 55.2342C62.2824 55.0567 62.455 54.7857 62.5087 54.4809C62.5624 54.1762 62.4928 53.8625 62.3152 53.6091C62.1377 53.3556 61.8667 53.183 61.5619 53.1294C61.3101 53.0585 61.0711 52.9482 60.8538 52.8027C61.916 52.2972 63.0737 52.0236 64.2499 52C66.1166 52 68.3333 52.7572 68.3333 56.3622C68.2504 58.914 67.5771 61.4119 66.3663 63.6597Z" fill="#81CEB2"/>
<path d="M74.1666 36.8333H66.952C66.7115 36.1533 66.2669 35.5641 65.6788 35.1464C65.0907 34.7288 64.3879 34.503 63.6666 34.5H54.3333C53.612 34.503 52.9092 34.7288 52.3211 35.1464C51.7331 35.5641 51.2884 36.1533 51.048 36.8333H43.8333C42.5956 36.8333 41.4086 37.325 40.5335 38.2002C39.6583 39.0753 39.1666 40.2623 39.1666 41.5V78.8333C39.1666 80.071 39.6583 81.258 40.5335 82.1332C41.4086 83.0083 42.5956 83.5 43.8333 83.5H74.1666C75.4043 83.5 76.5913 83.0083 77.4665 82.1332C78.3416 81.258 78.8333 80.071 78.8333 78.8333V41.5C78.8333 40.2623 78.3416 39.0753 77.4665 38.2002C76.5913 37.325 75.4043 36.8333 74.1666 36.8333ZM53.1666 38C53.1666 37.6906 53.2895 37.3938 53.5083 37.175C53.7271 36.9562 54.0239 36.8333 54.3333 36.8333H63.6666C63.976 36.8333 64.2728 36.9562 64.4916 37.175C64.7104 37.3938 64.8333 37.6906 64.8333 38V39.1667C64.8333 39.4761 64.7104 39.7728 64.4916 39.9916C64.2728 40.2104 63.976 40.3333 63.6666 40.3333H54.3333C54.0239 40.3333 53.7271 40.2104 53.5083 39.9916C53.2895 39.7728 53.1666 39.4761 53.1666 39.1667V38ZM76.5 78.8333C76.5 79.4522 76.2541 80.0457 75.8165 80.4832C75.379 80.9208 74.7855 81.1667 74.1666 81.1667H43.8333C43.2145 81.1667 42.621 80.9208 42.1834 80.4832C41.7458 80.0457 41.5 79.4522 41.5 78.8333V41.5C41.5 40.8812 41.7458 40.2877 42.1834 39.8501C42.621 39.4125 43.2145 39.1667 43.8333 39.1667H50.8333C50.8333 40.0949 51.202 40.9852 51.8584 41.6415C52.5148 42.2979 53.405 42.6667 54.3333 42.6667H63.6666C64.5949 42.6667 65.4851 42.2979 66.1415 41.6415C66.7979 40.9852 67.1666 40.0949 67.1666 39.1667H74.1666C74.7855 39.1667 75.379 39.4125 75.8165 39.8501C76.2541 40.2877 76.5 40.8812 76.5 41.5V78.8333Z" fill="#81CEB2"/>
</g>
<defs>
<filter id="filter0_d_12_264" x="0" y="0" width="118" height="118" filterUnits="userSpaceOnUse" color-interpolation-filters="sRGB">
<feFlood flood-opacity="0" result="BackgroundImageFix"/>
<feColorMatrix in="SourceAlpha" type="matrix" values="0 0 0 0 0 0 0 0 0 0 0 0 0 0 0 0 0 0 127 0" result="hardAlpha"/>
<feOffset/>
<feGaussianBlur stdDeviation="8"/>
<feComposite in2="hardAlpha" operator="out"/>
<feColorMatrix type="matrix" values="0 0 0 0 0.513021 0 0 0 0 0.602604 0 0 0 0 0.625 0 0 0 0.1 0"/>
<feBlend mode="normal" in2="BackgroundImageFix" result="effect1_dropShadow_12_264"/>
<feBlend mode="normal" in="SourceGraphic" in2="effect1_dropShadow_12_264" result="shape"/>
</filter>
</defs>
</svg>
