<svg width="36" height="36" viewBox="0 0 36 36" fill="none" xmlns="http://www.w3.org/2000/svg">
<path fill-rule="evenodd" clip-rule="evenodd" d="M17.3979 4.2187C17.3979 3.38337 18.0751 2.7062 18.9104 2.7062C19.7458 2.7062 20.4229 3.38337 20.4229 4.2187C20.4229 5.05403 19.7458 5.7312 18.9104 5.7312C18.0751 5.7312 17.3979 5.05403 17.3979 4.2187ZM18.9104 0.106201C16.6392 0.106201 14.7979 1.94743 14.7979 4.2187C14.7979 6.48997 16.6392 8.3312 18.9104 8.3312C20.7274 8.3312 22.2692 7.15288 22.8132 5.5187H24.5354C25.3707 5.5187 26.0479 6.1959 26.0479 7.0312V13.8875H16.0979C15.38 13.8875 14.7979 14.4695 14.7979 15.1875C14.7979 15.9054 15.38 16.4875 16.0979 16.4875H26.0479V19.6896C25.6624 19.5726 25.2602 19.5125 24.854 19.5125H13.9987L8.33731 10.6258L8.3373 10.6258C7.11694 8.71021 4.5748 8.14657 2.65918 9.36696C0.743617 10.5873 0.179972 13.1295 1.40036 15.0451L8.27404 25.8346L8.27406 25.8346C8.64561 26.4178 9.15821 26.8979 9.76445 27.2305C10.3707 27.5631 11.051 27.7374 11.7425 27.7375H14.7979V33.2937H10.4729C9.75498 33.2937 9.17295 33.8757 9.17295 34.5937C9.17295 35.3117 9.75498 35.8937 10.4729 35.8937H16.0979H21.7229C22.4409 35.8937 23.0229 35.3117 23.0229 34.5937C23.0229 33.8757 22.4409 33.2937 21.7229 33.2937H17.398V27.7375H22.4796L25.5695 33.0893C26.7051 35.0563 29.2202 35.7302 31.1873 34.5945C33.1542 33.4589 33.8282 30.9438 32.6925 28.9768L28.6479 21.9713V15.1897L28.6479 15.1875L28.6479 15.1852V7.0312C28.6479 4.75996 26.8067 2.9187 24.5354 2.9187H22.8132C22.2692 1.28452 20.7274 0.106201 18.9104 0.106201ZM26.2337 22.9896C26.2253 22.9758 26.2172 22.9618 26.2094 22.9476L26.1638 22.8687C26.0311 22.6388 25.8401 22.4478 25.6102 22.3151C25.3803 22.1823 25.1195 22.1125 24.854 22.1125H13.2854C12.8412 22.1125 12.4277 21.8856 12.189 21.5109L6.14449 12.0228L6.14448 12.0228C5.69562 11.3182 4.76068 11.1109 4.05617 11.5598C3.35161 12.0086 3.14435 12.9436 3.59318 13.6481L10.4668 24.4376L10.4669 24.4376C10.6035 24.6521 10.792 24.8287 11.015 24.951C11.238 25.0733 11.4882 25.1375 11.7425 25.1375H16.0979H23.2302C23.6946 25.1375 24.1238 25.3852 24.356 25.7875L27.8211 31.7893C28.2388 32.5127 29.1638 32.7606 29.8872 32.3429C30.6107 31.9252 30.8585 31.0002 30.4409 30.2768L31.5667 29.6268L30.4409 30.2768L26.2337 22.9896Z" fill="#81CEB2"/>
</svg>
