<svg width="36" height="36" viewBox="0 0 36 36" fill="none" xmlns="http://www.w3.org/2000/svg">
<path fill-rule="evenodd" clip-rule="evenodd" d="M17.599 32.9223C17.5947 32.9207 17.5902 32.9194 17.5854 32.9182L17.5016 32.9225L17.5505 32.9046C11.4321 30.6692 8.53974 27.0015 7.12212 22.9827C5.66023 18.8383 5.73083 14.2395 5.80706 10.0695C5.82311 9.68846 5.83362 9.30718 5.83858 8.92579C5.84803 8.29105 6.31639 7.8523 6.81237 7.82345C11.128 7.57241 14.6155 6.0961 17.5506 3.24826C20.4858 6.0961 23.9733 7.57241 28.2889 7.82345C28.7848 7.85229 29.2531 8.29092 29.2626 8.92557L29.2626 8.92661L29.2942 10.0694C29.3704 14.2565 29.4318 18.856 27.9658 22.9953C26.5438 27.0101 23.651 30.6691 17.5505 32.9046L17.599 32.9223ZM16.5556 35.8246C16.6867 35.8722 16.8211 35.9103 16.9578 35.9388L18.1414 35.9392C18.2779 35.9108 18.4148 35.8721 18.5482 35.8236C25.5585 33.2708 29.132 28.9095 30.8603 24.0295C32.5352 19.3006 32.4416 14.1623 32.3671 10.075L32.3653 9.97549L32.3645 9.95664C32.3493 9.59936 32.3393 9.24185 32.3346 8.88424L32.3346 8.88257C32.3038 6.71689 30.6562 4.87026 28.4665 4.7429C24.7144 4.52464 21.867 3.24898 19.437 0.782645L19.4204 0.765821L19.4033 0.749514C18.3564 -0.249838 16.7449 -0.249838 15.6979 0.749514L15.6808 0.765821L15.6643 0.782645C13.2343 3.24898 10.3869 4.52464 6.63476 4.7429C4.44508 4.87026 2.79751 6.71685 2.76663 8.88243L2.7666 8.8844C2.76196 9.24193 2.75203 9.59937 2.73681 9.95659L2.73601 9.9754L2.73306 10.136C2.65864 14.1919 2.56486 19.3032 4.22624 24.0131C5.94971 28.899 9.52457 33.2717 16.5556 35.8246Z" fill="#81CEB2"/>
<path fill-rule="evenodd" clip-rule="evenodd" d="M16.3746 22.6211C16.8325 22.6666 17.2867 22.5035 17.6121 22.1767L24.2066 15.5534C24.8065 14.9508 24.8065 13.974 24.2066 13.3714C23.6067 12.7689 22.6341 12.7689 22.0342 13.3714L16.7647 18.664L14.5598 15.9429C14.0892 15.2339 13.1355 15.0423 12.4296 15.5149C11.7237 15.9876 11.533 16.9455 12.0036 17.6545L15.2478 21.9415C15.5031 22.3261 15.9166 22.5755 16.3746 22.6211Z" fill="#81CEB2"/>
</svg>
