<svg width="66" height="24" viewBox="0 0 66 24" fill="none" xmlns="http://www.w3.org/2000/svg">
<path d="M62.9256 18.5756C64.2204 18.5756 65.1375 18.3457 65.8209 17.8504V15.6039C65.1196 16.0815 64.2743 16.3822 63.0874 16.3822C61.0912 16.3822 60.264 14.861 60.264 12.4553C60.264 9.92586 61.2711 8.63458 63.1054 8.63458C64.1844 8.63458 65.2454 9.00604 65.8029 9.35982V7.02491C65.2095 6.70652 64.1844 6.47656 62.7817 6.47656C59.2029 6.47656 57.3506 9.00604 57.3506 12.5438C57.3686 16.4176 59.185 18.5756 62.9256 18.5756ZM45.4275 17.5497V15.3032C44.5643 15.8869 43.0896 16.3999 41.7408 16.3999C39.6907 16.3999 38.9174 15.4447 38.7915 13.499H45.5534V12.0485C45.5534 7.99779 43.737 6.47656 40.9495 6.47656C37.5326 6.47656 35.9141 9.04142 35.9141 12.5615C35.9141 16.6122 37.9463 18.5756 41.507 18.5756C43.2874 18.5756 44.6002 18.098 45.4275 17.5497ZM19.7648 6.68883V11.2879H16.0242V6.68883H13.2188V18.3457H16.0242V13.4813H19.7648V18.3457H22.5702V6.68883H19.7648ZM35.2128 16.1523H33.9719V6.68883H25.8073V7.67939C25.8073 10.5273 25.6275 14.2065 24.6384 16.1523H23.7392V20.999H26.3288V18.3457H32.6051V20.999H35.1948V16.1523H35.2128ZM54.3653 18.3457H57.5484L53.0525 12.0662L57.0089 6.68883H54.1855L50.2291 12.0662V6.68883H47.4237V18.3457H50.2291V12.6145L54.3653 18.3457ZM40.8776 8.63458C42.2623 8.63458 42.694 9.76666 42.694 11.2348V11.4648H38.7915C38.8634 9.60746 39.5468 8.63458 40.8776 8.63458ZM31.1664 16.1523H27.21C27.9833 14.4011 28.1991 11.2171 28.1991 9.20062V8.84685H31.1664V16.1523Z" fill="black"/>
<path d="M10.8801 18.3467H8.02071V4.42571H6.74387C4.40599 4.42571 3.18311 5.57547 3.18311 7.29127C3.18311 9.23703 4.02834 10.1392 5.77275 11.2889L7.21144 12.2441L3.0752 18.3467H0L3.72262 12.8986C1.58256 11.395 0.377657 9.92689 0.377657 7.45047C0.377657 4.35495 2.57166 2.25 6.72589 2.25H10.8621V18.3467H10.8801Z" fill="#FC3F1D"/>
</svg>
