<svg width="127" height="24" viewBox="0 0 127 24" fill="none" xmlns="http://www.w3.org/2000/svg">
<path fill-rule="evenodd" clip-rule="evenodd" d="M5.4274 6.9375C5.44977 6.9375 5.47224 6.9375 5.49481 6.9375C5.51733 6.9375 5.53985 6.9375 5.56217 6.9375C6.49645 6.93745 7.29797 6.93741 7.93912 7.02183C8.62487 7.11213 9.27731 7.31512 9.80592 7.83282C10.3345 8.35053 10.5418 8.98951 10.634 9.66114C10.7201 10.2891 10.7201 11.0741 10.7201 11.989V16.9422C10.7201 17.4924 10.2647 17.9383 9.70305 17.9383C9.14137 17.9383 8.68608 17.4924 8.68608 16.9422V12.0551C8.68608 11.0555 8.68388 10.406 8.61813 9.92658C8.5562 9.47586 8.45533 9.32732 8.36765 9.24144C8.27997 9.15555 8.1283 9.05675 7.66807 8.99615C7.17864 8.9317 6.51545 8.92959 5.49481 8.92959C4.47417 8.92959 3.81099 8.9317 3.3215 8.99615C2.86129 9.05675 2.70963 9.15555 2.62195 9.24144C2.53426 9.32732 2.43337 9.47586 2.3715 9.92658C2.30569 10.406 2.30353 11.0555 2.30353 12.0551V16.9422C2.30353 17.4924 1.84821 17.9383 1.28653 17.9383C0.724862 17.9383 0.269536 17.4924 0.269536 16.9422V12.0551C0.269536 12.033 0.269535 12.011 0.269534 11.989C0.269484 11.0741 0.269442 10.2891 0.355642 9.66114C0.447839 8.98951 0.6551 8.35053 1.18369 7.83282C1.71229 7.31512 2.36472 7.11213 3.05048 7.02183C3.69162 6.93741 4.49315 6.93745 5.4274 6.9375Z" fill="#EC2327"/>
<path fill-rule="evenodd" clip-rule="evenodd" d="M12.3945 8.69859C12.3945 7.76911 13.1639 7.01562 14.1129 7.01562H19.0226C20.7463 7.01562 22.1437 8.38421 22.1437 10.0724V11.1952C22.1437 12.8835 20.7463 14.2521 19.0226 14.2521H14.4285V16.9417C14.4285 17.4918 13.9732 17.9377 13.4116 17.9377C12.8499 17.9377 12.3945 17.4918 12.3945 16.9417V8.69859ZM14.4285 12.26H19.0226C19.6229 12.26 20.1097 11.7833 20.1097 11.1952V10.0724C20.1097 9.4844 19.6229 9.0077 19.0226 9.0077H14.4285V12.26Z" fill="#EC2327"/>
<path fill-rule="evenodd" clip-rule="evenodd" d="M93.6016 8.67515C93.6016 7.74568 94.3709 6.99219 95.32 6.99219H100.229C101.953 6.99219 103.351 8.36077 103.351 10.049V11.1718C103.351 12.86 101.953 14.2286 100.229 14.2286H95.6355V16.9182C95.6355 17.4683 95.1803 17.9143 94.6185 17.9143C94.0568 17.9143 93.6016 17.4683 93.6016 16.9182V8.67515ZM95.6355 12.2366H100.229C100.83 12.2366 101.317 11.7599 101.317 11.1718V10.049C101.317 9.46097 100.83 8.98427 100.229 8.98427H95.6355V12.2366Z" fill="#0070C0"/>
<path fill-rule="evenodd" clip-rule="evenodd" d="M118.736 7.03518L118.688 7.03517C118.4 7.03506 118.091 7.03495 117.831 7.06921C117.527 7.10921 117.143 7.2116 116.82 7.52811C116.497 7.84462 116.392 8.2211 116.351 8.5186C116.316 8.77343 116.316 9.07595 116.316 9.35857V9.40507V12.102C116.316 12.1043 116.316 12.1066 116.316 12.1089C116.316 12.1108 116.316 12.1127 116.316 12.1146V16.9173C116.316 17.4674 116.772 17.9134 117.333 17.9134C117.386 17.9134 117.437 17.9095 117.488 17.902C117.538 17.9095 117.589 17.9134 117.642 17.9134H123.295H123.353C123.621 17.9135 123.848 17.9137 124.053 17.8872C125.454 17.7067 126.556 16.6273 126.74 15.2556C126.768 15.055 126.767 14.8324 126.767 14.5699V14.5131V14.4564C126.767 14.1939 126.768 13.9713 126.74 13.7707C126.641 13.033 126.277 12.3799 125.743 11.9057C126.164 11.4055 126.416 10.7646 126.416 10.0481C126.416 8.35986 125.019 7.03518 123.295 7.03518H118.736ZM118.35 13.0154V15.9213H123.295C123.654 15.9213 123.734 15.9191 123.788 15.9122C124.275 15.8493 124.659 15.4734 124.724 14.9955C124.731 14.9426 124.733 14.8638 124.733 14.5131C124.733 14.1624 124.731 14.0836 124.724 14.0307C124.659 13.5529 124.275 13.0874 123.788 13.0245C123.734 13.0175 123.654 13.0154 123.295 13.0154H118.35ZM123.295 11.1128H118.35V9.40507C118.35 9.25309 118.35 9.1328 118.352 9.02946C118.458 9.02732 118.581 9.02726 118.736 9.02726H123.295C123.895 9.02726 124.382 9.46006 124.382 10.0481C124.382 10.6361 123.895 11.1128 123.295 11.1128Z" fill="#0070C0"/>
<path fill-rule="evenodd" clip-rule="evenodd" d="M53.0777 6.98047C53.0977 6.98047 53.1172 6.98047 53.1368 6.98047C53.1568 6.98047 53.1768 6.98047 53.1964 6.98047C54.0233 6.98044 54.7331 6.98041 55.3085 7.04066C55.9195 7.10463 56.5116 7.24704 57.0342 7.61943C57.2653 7.78393 57.4719 7.97582 57.6492 8.1902C58.0497 8.67551 58.2031 9.22558 58.272 9.79304C58.3369 10.3275 58.3369 10.9867 58.3369 11.7546V13.2543C58.3369 14.0222 58.3369 14.6814 58.272 15.2158C58.2031 15.7833 58.0497 16.3334 57.6492 16.8187C57.4719 17.0331 57.2653 17.225 57.0342 17.3894C56.5116 17.7619 55.9195 17.9043 55.3085 17.9682C54.7331 18.0285 54.0233 18.0284 53.1964 18.0284H53.0777C52.2512 18.0284 51.5415 18.0285 50.9661 17.9682C50.355 17.9043 49.7625 17.7619 49.2398 17.3894C49.0093 17.225 48.8026 17.0331 48.6253 16.8187C48.2243 16.3334 48.0709 15.7833 48.0021 15.2158C47.9375 14.6814 47.9375 14.0222 47.9375 13.2543V11.8096C47.9375 11.7912 47.9375 11.7729 47.9375 11.7546C47.9375 10.9867 47.9375 10.3275 48.0021 9.79304C48.0709 9.22558 48.2243 8.67551 48.6253 8.1902C48.8026 7.97582 49.0093 7.78393 49.2398 7.61943C49.7625 7.24704 50.355 7.10463 50.9661 7.04066C51.5415 6.98041 52.2512 6.98044 53.0777 6.98047ZM51.0667 9.04301C50.649 9.08673 50.5006 9.1597 50.4185 9.21807C50.3384 9.27536 50.2661 9.3422 50.2046 9.41687C50.142 9.49294 50.0634 9.63102 50.016 10.0188C49.9667 10.4269 49.9647 10.9713 49.9647 11.8096V13.1993C49.9647 14.0376 49.9667 14.582 50.016 14.9901C50.0634 15.3779 50.142 15.516 50.2046 15.592C50.2661 15.6667 50.3384 15.7335 50.4185 15.7908C50.5006 15.8492 50.649 15.9221 51.0667 15.9659C51.5058 16.0119 52.2346 16.0134 53.1368 16.0134C54.0399 16.0134 54.8249 16.0119 55.264 15.9659C55.6817 15.9221 55.8306 15.8492 55.9122 15.7908C55.9928 15.7335 56.0646 15.6667 56.1267 15.592C56.1892 15.516 56.2678 15.3779 56.3147 14.9901C56.3645 14.582 56.366 14.0376 56.366 13.1993V11.8096C56.366 10.9713 56.3645 10.4269 56.3147 10.0188C56.2678 9.63102 56.1892 9.49294 56.1267 9.41687C56.0646 9.3422 55.9928 9.27536 55.9122 9.21807C55.8306 9.1597 55.6817 9.08673 55.264 9.04301C54.8249 8.997 54.0399 8.99551 53.1368 8.99551C52.2346 8.99551 51.5058 8.997 51.0667 9.04301Z" fill="#0070C0"/>
<path fill-rule="evenodd" clip-rule="evenodd" d="M28.5819 6.98047C28.6016 6.98047 28.6213 6.98047 28.6412 6.98047C28.661 6.98047 28.6807 6.98047 28.7004 6.98047C29.5272 6.98044 30.237 6.98041 30.8125 7.04066C31.4235 7.10463 32.0158 7.24704 32.5383 7.61943C32.7692 7.78393 32.9758 7.97582 33.1529 8.1902C33.5539 8.67551 33.7072 9.22558 33.7761 9.79304C33.841 10.3275 33.8409 10.9867 33.8409 11.7546V13.2543C33.8409 14.0222 33.841 14.6814 33.7761 15.2158C33.7072 15.7833 33.5539 16.3334 33.1529 16.8187C32.9758 17.0331 32.7692 17.225 32.5383 17.3894C32.0158 17.7619 31.4235 17.9043 30.8125 17.9682C30.237 18.0285 29.5272 18.0284 28.7004 18.0284H28.582C27.7551 18.0284 27.0453 18.0285 26.4698 17.9682C25.8588 17.9043 25.2665 17.7619 24.744 17.3894C24.5131 17.225 24.3065 17.0331 24.1294 16.8187C23.7284 16.3334 23.5751 15.7833 23.5062 15.2158C23.4414 14.6814 23.4414 14.0222 23.4414 13.2543V11.8096C23.4414 11.7912 23.4414 11.7729 23.4414 11.7546C23.4414 10.9867 23.4414 10.3275 23.5062 9.79304C23.5751 9.22558 23.7284 8.67551 24.1294 8.1902C24.3065 7.97582 24.5131 7.78393 24.744 7.61943C25.2665 7.24704 25.8588 7.10463 26.4698 7.04066C27.0453 6.98041 27.7551 6.98044 28.5819 6.98047ZM26.5708 9.04301C26.1532 9.08673 26.0046 9.1597 25.9226 9.21807C25.8423 9.27536 25.7703 9.3422 25.7086 9.41687C25.6457 9.49294 25.5672 9.63102 25.5201 10.0188C25.4706 10.4269 25.469 10.9713 25.469 11.8096V13.1993C25.469 14.0376 25.4706 14.582 25.5201 14.9901C25.5672 15.3779 25.6457 15.516 25.7086 15.592C25.7703 15.6667 25.8423 15.7335 25.9226 15.7908C26.0046 15.8492 26.1532 15.9221 26.5708 15.9659C27.0102 16.0119 27.7385 16.0134 28.6412 16.0134C29.5439 16.0134 30.3288 16.0119 30.7682 15.9659C31.1857 15.9221 31.3344 15.8492 31.4163 15.7908C31.4967 15.7335 31.5686 15.6667 31.6304 15.592C31.6932 15.516 31.7718 15.3779 31.8188 14.9901C31.8683 14.582 31.87 14.0376 31.87 13.1993V11.8096C31.87 10.9713 31.8683 10.4269 31.8188 10.0188C31.7718 9.63102 31.6932 9.49294 31.6304 9.41687C31.5686 9.3422 31.4967 9.27536 31.4163 9.21807C31.3344 9.1597 31.1857 9.08673 30.7682 9.04301C30.3288 8.997 29.5439 8.99551 28.6412 8.99551C27.7385 8.99551 27.0102 8.997 26.5708 9.04301Z" fill="#EC2327"/>
<path fill-rule="evenodd" clip-rule="evenodd" d="M86.9135 6.98047C86.9335 6.98047 86.9531 6.98047 86.9726 6.98047C86.9926 6.98047 87.0122 6.98047 87.0317 6.98047C87.8587 6.98044 88.5689 6.98041 89.1443 7.04066C89.7554 7.10463 90.3474 7.24704 90.8701 7.61943C91.1011 7.78393 91.3077 7.97582 91.4845 8.1902C91.8856 8.67551 92.0389 9.22557 92.1078 9.79305C92.1728 10.3275 92.1728 10.9867 92.1728 11.7546V13.2543C92.1728 14.0222 92.1728 14.6814 92.1078 15.2158C92.0389 15.7833 91.8856 16.3334 91.4845 16.8187C91.3077 17.0331 91.1011 17.225 90.8701 17.3895C90.3474 17.7619 89.7554 17.9043 89.1443 17.9682C88.5689 18.0285 87.8587 18.0284 87.0317 18.0284H86.9135C86.087 18.0284 85.3768 18.0285 84.8014 17.9682C84.1903 17.9043 83.5983 17.7619 83.0757 17.3895C82.8451 17.225 82.6385 17.0331 82.4612 16.8187C82.0602 16.3334 81.9068 15.7833 81.8379 15.2158C81.7734 14.6814 81.7734 14.0222 81.7734 13.2543V11.8096C81.7734 11.7912 81.7734 11.7729 81.7734 11.7546C81.7734 10.9867 81.7734 10.3275 81.8379 9.79305C81.9068 9.22557 82.0602 8.67551 82.4612 8.1902C82.6385 7.97582 82.8451 7.78393 83.0757 7.61943C83.5983 7.24704 84.1903 7.10463 84.8014 7.04066C85.3768 6.98041 86.087 6.98044 86.9135 6.98047ZM84.9025 9.04301C84.4849 9.08673 84.3364 9.1597 84.2543 9.21807C84.1742 9.27537 84.1019 9.3422 84.0404 9.41687C83.9774 9.49294 83.8992 9.63101 83.8518 10.0188C83.8025 10.4269 83.8006 10.9713 83.8006 11.8096V13.1993C83.8006 14.0376 83.8025 14.582 83.8518 14.9901C83.8992 15.3779 83.9774 15.516 84.0404 15.592C84.1019 15.6667 84.1742 15.7335 84.2543 15.7908C84.3364 15.8492 84.4849 15.9221 84.9025 15.9659C85.3417 16.0119 86.0699 16.0134 86.9726 16.0134C87.8758 16.0134 88.6603 16.0119 89.0999 15.9659C89.5175 15.9221 89.666 15.8492 89.7481 15.7908C89.8287 15.7335 89.9005 15.6667 89.962 15.592C90.025 15.516 90.1037 15.3779 90.1506 14.9901C90.2004 14.582 90.2018 14.0376 90.2018 13.1993V11.8096C90.2018 10.9713 90.2004 10.4269 90.1506 10.0188C90.1037 9.63101 90.025 9.49294 89.962 9.41687C89.9005 9.3422 89.8287 9.27537 89.7481 9.21807C89.666 9.1597 89.5175 9.08673 89.0999 9.04301C88.6603 8.99701 87.8758 8.99551 86.9726 8.99551C86.0699 8.99551 85.3417 8.99701 84.9025 9.04301Z" fill="#0070C0"/>
<path fill-rule="evenodd" clip-rule="evenodd" d="M109.695 6.98828C109.715 6.98828 109.734 6.98828 109.754 6.98828C109.774 6.98828 109.793 6.98828 109.813 6.98828C110.64 6.98825 111.35 6.98822 111.926 7.04847C112.537 7.11245 113.129 7.25485 113.651 7.62725C113.882 7.79174 114.088 7.98363 114.266 8.19801C114.667 8.68332 114.82 9.23338 114.889 9.80086C114.954 10.3353 114.954 10.9945 114.954 11.7624V13.2621C114.954 14.03 114.954 14.6892 114.889 15.2237C114.82 15.7911 114.667 16.3412 114.266 16.8265C114.088 17.0409 113.882 17.2328 113.651 17.3973C113.129 17.7697 112.537 17.9121 111.926 17.976C111.35 18.0363 110.64 18.0363 109.813 18.0363H109.695C108.868 18.0363 108.158 18.0363 107.583 17.976C106.972 17.9121 106.38 17.7697 105.857 17.3973C105.626 17.2328 105.42 17.0409 105.242 16.8265C104.841 16.3412 104.688 15.7911 104.619 15.2237C104.555 14.6892 104.555 14.03 104.555 13.2621V11.8175C104.555 11.7991 104.555 11.7807 104.555 11.7624C104.555 10.9945 104.555 10.3353 104.619 9.80086C104.688 9.23338 104.841 8.68332 105.242 8.19801C105.42 7.98363 105.626 7.79174 105.857 7.62725C106.38 7.25485 106.972 7.11245 107.583 7.04847C108.158 6.98822 108.868 6.98825 109.695 6.98828ZM107.684 9.05082C107.267 9.09454 107.118 9.16751 107.036 9.22588C106.955 9.28317 106.883 9.35001 106.822 9.42469C106.759 9.50075 106.68 9.63882 106.633 10.0266C106.584 10.4347 106.582 10.9791 106.582 11.8175V13.2071C106.582 14.0454 106.584 14.5899 106.633 14.9979C106.68 15.3857 106.759 15.5238 106.822 15.5998C106.883 15.6745 106.955 15.7414 107.036 15.7986C107.118 15.857 107.267 15.93 107.684 15.9737C108.123 16.0197 108.851 16.0212 109.754 16.0212C110.657 16.0212 111.442 16.0197 111.881 15.9737C112.299 15.93 112.447 15.857 112.529 15.7986C112.61 15.7414 112.682 15.6745 112.743 15.5998C112.806 15.5238 112.885 15.3857 112.932 14.9979C112.982 14.5899 112.983 14.0454 112.983 13.2071V11.8175C112.983 10.9791 112.982 10.4347 112.932 10.0266C112.885 9.63882 112.806 9.50075 112.743 9.42469C112.682 9.35001 112.61 9.28317 112.529 9.22588C112.447 9.16751 112.299 9.09454 111.881 9.05082C111.442 9.00482 110.657 9.00332 109.754 9.00332C108.851 9.00332 108.123 9.00482 107.684 9.05082Z" fill="#0070C0"/>
<path fill-rule="evenodd" clip-rule="evenodd" d="M44.1325 15.994L40.9903 9.15457L37.8603 15.994H44.1325ZM46.2437 15.994L42.3841 7.64403C41.9924 6.84621 39.9793 6.83935 39.5923 7.64306L35.7369 15.994H35.5327C34.9709 15.994 34.5156 16.4232 34.5156 16.9527C34.5156 17.4822 34.9709 17.9114 35.5327 17.9114H46.4484C47.01 17.9114 47.4655 17.4822 47.4655 16.9527C47.4655 16.4232 47.01 15.994 46.4484 15.994H46.2437Z" fill="#0070C0"/>
<path fill-rule="evenodd" clip-rule="evenodd" d="M69.1934 8.81546L64.0274 12.4631L69.4811 16.0753C69.9461 16.3835 70.0682 17.0027 69.7536 17.4584C69.4391 17.9141 68.807 18.0337 68.3415 17.7255L62.4966 13.8542C62.2411 13.6848 62.0501 13.4649 61.9241 13.2201V16.9183C61.9241 17.4685 61.4688 17.9144 60.9071 17.9144C60.3454 17.9144 59.8906 17.4685 59.8906 16.9183V7.98836C59.8906 7.43826 60.3454 6.99232 60.9071 6.99232C61.4688 6.99232 61.9241 7.43826 61.9241 7.98836V11.7002C62.0526 11.4503 62.2489 11.2264 62.5122 11.056L68.0714 7.1534C68.5403 6.85015 69.1714 6.97639 69.4811 7.43536C69.7903 7.89433 69.6613 8.51222 69.1934 8.81546Z" fill="#0070C0"/>
<path fill-rule="evenodd" clip-rule="evenodd" d="M70.7148 7.98823C70.7148 7.43813 71.1701 6.99219 71.7318 6.99219H80.1485C80.7097 6.99219 81.1655 7.43813 81.1655 7.98823C81.1655 8.53833 80.7097 8.98427 80.1485 8.98427H71.7318C71.1701 8.98427 70.7148 8.53833 70.7148 7.98823Z" fill="#0070C0"/>
<path fill-rule="evenodd" clip-rule="evenodd" d="M75.9433 7.04688C76.5045 7.04688 76.9597 7.49282 76.9597 8.04291V16.9729C76.9597 17.523 76.5045 17.969 75.9433 17.969C75.381 17.969 74.9258 17.523 74.9258 16.9729V8.04291C74.9258 7.49282 75.381 7.04688 75.9433 7.04688Z" fill="#0070C0"/>
</svg>
