<svg width="60" height="68" viewBox="0 0 60 68" fill="none" xmlns="http://www.w3.org/2000/svg">
<g clip-path="url(#clip0_35_583)">
<g filter="url(#filter0_f_35_583)">
<path d="M30.51 56.523C30.5041 56.6516 30.4488 56.7729 30.3557 56.8618C30.2625 56.9506 30.1387 57.0001 30.01 57C29.72 57 29.5 56.79 29.49 56.523C29.345 53.355 27.734 51.306 24.658 50.376C14.53 47.968 7 38.863 7 28C7 15.297 17.297 5 30 5C42.703 5 53 15.297 53 28C53 38.863 45.47 47.968 35.342 50.376C32.266 51.306 30.655 53.356 30.512 56.523H30.51Z" fill="#FF3333"/>
</g>
<path d="M30.51 56.523C30.5041 56.6516 30.4488 56.7729 30.3557 56.8618C30.2625 56.9506 30.1387 57.0001 30.01 57C29.72 57 29.5 56.79 29.49 56.523C29.345 53.355 27.734 51.306 24.658 50.376C14.53 47.968 7 38.863 7 28C7 15.297 17.297 5 30 5C42.703 5 53 15.297 53 28C53 38.863 45.47 47.968 35.342 50.376C32.266 51.306 30.655 53.356 30.512 56.523H30.51Z" fill="#FF3333"/>
<path d="M30 68C27.79 68 26 66.21 26 64C26 61.79 27.79 60 30 60C32.21 60 34 61.79 34 64C34 66.21 32.21 68 30 68Z" fill="white"/>
<path fill-rule="evenodd" clip-rule="evenodd" d="M30.0017 65.9995C30.268 66.0055 30.5329 65.9583 30.7807 65.8605C31.0285 65.7628 31.2543 65.6165 31.4448 65.4303C31.6354 65.2441 31.7867 65.0217 31.8901 64.7761C31.9935 64.5306 32.0468 64.2669 32.0469 64.0005C32.0469 63.7341 31.9938 63.4704 31.8905 63.2248C31.7873 62.9792 31.636 62.7567 31.4455 62.5704C31.2551 62.3841 31.0294 62.2377 30.7816 62.1399C30.5338 62.042 30.269 61.9946 30.0027 62.0005C29.4801 62.012 28.9828 62.2277 28.6173 62.6013C28.2518 62.9749 28.047 63.4768 28.0469 63.9995C28.0467 64.5222 28.2512 65.0242 28.6166 65.398C28.9819 65.7718 29.4791 65.9877 30.0017 65.9995Z" fill="#FF3333"/>
<path d="M31.773 18.223C31.85 18.15 31.925 18.075 32 18C32.5 17.5 33 17 34 17C37 17 40 21 40 24C38.112 32.306 35.654 36.621 34.564 38.236L34.554 38.252L34.616 38.158C34.298 38.605 33.58 38.986 33.033 38.999C33.009 39 33.075 39 33.049 39H32.945C32.6969 38.994 32.4601 38.8946 32.2821 38.7216C32.1042 38.5487 31.998 38.3149 31.985 38.067C31.9832 38.0294 31.9818 37.9917 31.981 37.954C31.91 35.584 31.575 30 30 30C28.425 30 28.09 35.583 28.02 37.954C28.0188 37.9917 28.0172 38.0294 28.015 38.067C28.0017 38.3147 27.8955 38.5482 27.7175 38.721C27.5396 38.8938 27.303 38.9931 27.055 38.999L26.952 39H26.968C26.42 38.986 25.702 38.605 25.384 38.158L25.447 38.252L25.437 38.236C24.345 36.621 21.886 32.306 20 24C20 20 23 17 26 17C27 17 27.5 17.5 28 18C28.21 18.21 28.42 18.42 28.666 18.592C28.2743 19.2046 27.8066 19.765 27.274 20.26C27.199 20.33 27.259 20.456 27.359 20.436C28.235 20.258 30.503 19.673 31.773 18.223Z" fill="white"/>
</g>
<defs>
<filter id="filter0_f_35_583" x="1" y="-1" width="58" height="64" filterUnits="userSpaceOnUse" color-interpolation-filters="sRGB">
<feFlood flood-opacity="0" result="BackgroundImageFix"/>
<feBlend mode="normal" in="SourceGraphic" in2="BackgroundImageFix" result="shape"/>
<feGaussianBlur stdDeviation="3" result="effect1_foregroundBlur_35_583"/>
</filter>
<clipPath id="clip0_35_583">
<rect width="60" height="68" fill="white"/>
</clipPath>
</defs>
</svg>
