<svg width="66" height="66" viewBox="0 0 66 66" fill="none" xmlns="http://www.w3.org/2000/svg">
<g filter="url(#filter0_d_33_504)">
<path d="M33 16C23.6112 16 16 23.6112 16 33C16 42.3889 23.6112 50 33 50C42.3888 50 50 42.3889 50 33C50 23.6112 42.3889 16.0001 33 16Z" fill="#76CD7F"/>
<path d="M32.9965 25.104C31.5418 25.1046 30.1154 25.507 28.8749 26.267C27.6344 27.027 26.6279 28.1149 25.9664 29.4107C25.305 30.7066 25.0144 32.16 25.1266 33.6106C25.2388 35.0612 25.7495 36.4526 26.6024 37.6313L25.6153 40.5652L28.6535 39.5938C29.6813 40.2719 30.8534 40.7002 32.0762 40.8445C33.299 40.9888 34.5385 40.8451 35.6959 40.4249C36.8533 40.0047 37.8964 39.3196 38.7419 38.4244C39.5874 37.5292 40.2118 36.4487 40.5654 35.2691C40.9189 34.0896 40.9918 32.8437 40.7781 31.6309C40.5644 30.4182 40.0702 29.2722 39.3348 28.2846C38.5994 27.2969 37.6432 26.4949 36.5427 25.9427C35.4422 25.3904 34.2278 25.1032 32.9965 25.104ZM37.1935 36.273L36.3525 37.114C35.4681 37.9985 33.1229 37.0252 31.0441 34.9422C28.9654 32.8593 28.0336 30.5197 28.8746 29.645L29.7155 28.804C29.8784 28.6542 30.0915 28.5712 30.3127 28.5712C30.5339 28.5712 30.747 28.6542 30.9099 28.804L32.1496 30.0399C32.2507 30.1382 32.3249 30.2608 32.365 30.396C32.4051 30.5312 32.4098 30.6744 32.3787 30.8119C32.3476 30.9494 32.2817 31.0767 32.1873 31.1814C32.0929 31.2862 31.9732 31.3649 31.8397 31.4101C31.6427 31.4731 31.4775 31.6096 31.3786 31.7913C31.2797 31.9729 31.2546 32.1858 31.3086 32.3854C31.5297 33.3134 32.7241 34.4644 33.6105 34.6856C33.8091 34.7272 34.016 34.6959 34.1933 34.5972C34.3707 34.4986 34.5065 34.3393 34.5758 34.1485C34.6205 34.013 34.6995 33.8914 34.8052 33.7956C34.9109 33.6998 35.0397 33.633 35.1789 33.6017C35.3181 33.5705 35.463 33.5759 35.5995 33.6174C35.736 33.6589 35.8594 33.7351 35.9577 33.8386L37.1954 35.0785C37.3449 35.2416 37.4276 35.4549 37.4272 35.6761C37.4269 35.8973 37.3434 36.1103 37.1935 36.273Z" fill="white"/>
</g>
<defs>
<filter id="filter0_d_33_504" x="7.62939e-06" y="0" width="66" height="66" filterUnits="userSpaceOnUse" color-interpolation-filters="sRGB">
<feFlood flood-opacity="0" result="BackgroundImageFix"/>
<feColorMatrix in="SourceAlpha" type="matrix" values="0 0 0 0 0 0 0 0 0 0 0 0 0 0 0 0 0 0 127 0" result="hardAlpha"/>
<feOffset/>
<feGaussianBlur stdDeviation="8"/>
<feComposite in2="hardAlpha" operator="out"/>
<feColorMatrix type="matrix" values="0 0 0 0 0.513021 0 0 0 0 0.602604 0 0 0 0 0.625 0 0 0 0.06 0"/>
<feBlend mode="normal" in2="BackgroundImageFix" result="effect1_dropShadow_33_504"/>
<feBlend mode="normal" in="SourceGraphic" in2="effect1_dropShadow_33_504" result="shape"/>
</filter>
</defs>
</svg>
