<svg width="66" height="66" viewBox="0 0 66 66" fill="none" xmlns="http://www.w3.org/2000/svg">
<g filter="url(#filter0_d_33_508)">
<path d="M33 16C23.6112 16 16 23.6112 16 33C16 42.3889 23.6112 50 33 50C42.3888 50 50 42.3888 50 33C50 23.6112 42.3888 16 33 16Z" fill="#8276CD"/>
<path d="M34.7555 25.104H31.2455C29.6164 25.104 28.0541 25.7419 26.9021 26.8775C25.7502 28.013 25.1031 29.5531 25.1031 31.159V33.7541C25.1026 34.9003 25.4322 36.0232 26.0535 36.9921C26.6748 37.961 27.5624 38.7361 28.613 39.2274V42.1187C28.6141 42.1751 28.6318 42.23 28.664 42.2766C28.6963 42.3232 28.7416 42.3595 28.7945 42.3811C28.8473 42.4027 28.9055 42.4086 28.9617 42.3981C29.0179 42.3876 29.0698 42.3611 29.111 42.322L31.6601 39.8091H34.7555C36.3846 39.8091 37.9469 39.1712 39.0988 38.0356C40.2508 36.9001 40.8979 35.36 40.8979 33.7541V31.159C40.8979 29.5531 40.2508 28.013 39.0988 26.8775C37.9469 25.7419 36.3846 25.104 34.7555 25.104ZM37.0545 36.4529L36.177 37.3179C35.2425 38.2197 32.8031 37.1903 30.6532 35.0256C28.5033 32.8609 27.56 30.4324 28.4595 29.5307L29.337 28.6657C29.5089 28.5135 29.7325 28.4304 29.9636 28.4328C30.1947 28.4352 30.4165 28.5229 30.5852 28.6786L31.8663 29.9762C31.9681 30.0797 32.0415 30.207 32.0796 30.3461C32.1177 30.4853 32.1192 30.6317 32.0841 30.7716C32.049 30.9115 31.9784 31.0403 31.8789 31.1459C31.7794 31.2515 31.6543 31.3305 31.5153 31.3753C31.3094 31.4376 31.1356 31.5757 31.0302 31.7609C30.9249 31.9462 30.8959 32.1643 30.9494 32.3701C31.1687 33.3302 32.406 34.5326 33.3274 34.7683C33.5351 34.8171 33.7537 34.7895 33.9423 34.6908C34.1309 34.5921 34.2765 34.4289 34.3518 34.232C34.4005 34.0946 34.4842 33.9719 34.5949 33.8757C34.7056 33.7794 34.8396 33.7129 34.984 33.6825C35.1283 33.6521 35.2782 33.6588 35.4191 33.702C35.5601 33.7452 35.6873 33.8235 35.7887 33.9292L37.0677 35.2267C37.2213 35.3958 37.3051 35.6154 37.3027 35.8423C37.3002 36.0693 37.2117 36.2871 37.0545 36.4529ZM33.799 29.2128C33.7118 29.2124 33.6246 29.2174 33.538 29.2279C33.4998 29.232 33.4612 29.2287 33.4243 29.2181C33.3874 29.2075 33.3531 29.1899 33.3231 29.1662C33.2932 29.1425 33.2682 29.1132 33.2498 29.08C33.2313 29.0468 33.2197 29.0104 33.2155 28.9727C33.2113 28.9351 33.2147 28.897 33.2254 28.8607C33.2362 28.8244 33.2541 28.7905 33.2781 28.761C33.3022 28.7314 33.3319 28.7069 33.3655 28.6887C33.3992 28.6705 33.4362 28.659 33.4743 28.6549C33.5821 28.6426 33.6905 28.6368 33.799 28.6376C34.5754 28.637 35.3202 28.9403 35.8697 29.4808C36.4193 30.0214 36.7287 30.7549 36.7298 31.5202C36.7306 31.6271 36.7247 31.734 36.7123 31.8402C36.7081 31.8779 36.6965 31.9143 36.678 31.9475C36.6595 31.9807 36.6346 32.01 36.6047 32.0337C36.5747 32.0574 36.5403 32.075 36.5035 32.0856C36.4666 32.0962 36.428 32.0995 36.3898 32.0954C36.3516 32.0913 36.3147 32.0798 36.281 32.0616C36.2473 32.0434 36.2176 32.0188 36.1936 31.9893C36.1696 31.9598 36.1517 31.9259 36.1409 31.8896C36.1302 31.8532 36.1268 31.8152 36.1309 31.7775C36.1405 31.6921 36.1456 31.6062 36.1463 31.5202C36.1451 30.9075 35.8973 30.3202 35.4571 29.8876C35.017 29.4549 34.4206 29.2122 33.799 29.2128ZM35.554 31.5202C35.5476 31.5924 35.514 31.6597 35.4598 31.7087C35.4056 31.7578 35.3347 31.785 35.2611 31.785C35.1876 31.785 35.1167 31.7578 35.0624 31.7087C35.0082 31.6597 34.9746 31.5924 34.9683 31.5202C34.9683 31.2145 34.8451 30.9213 34.6258 30.7052C34.4065 30.489 34.1091 30.3676 33.799 30.3676C33.7584 30.371 33.7175 30.3661 33.679 30.3532C33.6404 30.3403 33.605 30.3196 33.575 30.2924C33.5449 30.2653 33.521 30.2323 33.5046 30.1955C33.4881 30.1588 33.4797 30.119 33.4797 30.0789C33.4797 30.0387 33.4881 29.999 33.5046 29.9622C33.521 29.9255 33.5449 29.8925 33.575 29.8653C33.605 29.8382 33.6404 29.8175 33.679 29.8045C33.7175 29.7916 33.7584 29.7867 33.799 29.7902C34.2645 29.7902 34.7108 29.9724 35.04 30.2969C35.3691 30.6213 35.554 31.0614 35.554 31.5202ZM37.785 32.4566C37.7785 32.4959 37.7639 32.5334 37.742 32.5669C37.7201 32.6004 37.6915 32.6291 37.6579 32.6512C37.6242 32.6733 37.5864 32.6883 37.5466 32.6953C37.5068 32.7023 37.466 32.7011 37.4267 32.6919C37.3874 32.6827 37.3504 32.6655 37.3182 32.6416C37.2859 32.6176 37.2589 32.5874 37.239 32.5527C37.2191 32.5181 37.2067 32.4797 37.2025 32.4401C37.1983 32.4005 37.2024 32.3604 37.2147 32.3225C37.278 32.0611 37.3097 31.7932 37.309 31.5245C37.309 30.6069 36.9392 29.7268 36.2809 29.0779C35.6227 28.429 34.7299 28.0645 33.799 28.0645C33.7091 28.0645 33.6169 28.0645 33.527 28.0645C33.4887 28.0673 33.4502 28.0627 33.4137 28.0509C33.3772 28.039 33.3434 28.0202 33.3143 27.9955C33.2554 27.9457 33.2191 27.8748 33.2133 27.7985C33.2075 27.7222 33.2326 27.6468 33.2832 27.5888C33.3338 27.5308 33.4057 27.495 33.4831 27.4893C33.5884 27.4806 33.6937 27.4763 33.799 27.4763C34.8859 27.478 35.9276 27.9048 36.6955 28.663C37.4634 29.4212 37.8947 30.4488 37.8947 31.5202C37.8948 31.8354 37.858 32.1496 37.785 32.4566Z" fill="white"/>
</g>
<defs>
<filter id="filter0_d_33_508" x="2.28882e-05" y="0" width="66" height="66" filterUnits="userSpaceOnUse" color-interpolation-filters="sRGB">
<feFlood flood-opacity="0" result="BackgroundImageFix"/>
<feColorMatrix in="SourceAlpha" type="matrix" values="0 0 0 0 0 0 0 0 0 0 0 0 0 0 0 0 0 0 127 0" result="hardAlpha"/>
<feOffset/>
<feGaussianBlur stdDeviation="8"/>
<feComposite in2="hardAlpha" operator="out"/>
<feColorMatrix type="matrix" values="0 0 0 0 0.513021 0 0 0 0 0.602604 0 0 0 0 0.625 0 0 0 0.06 0"/>
<feBlend mode="normal" in2="BackgroundImageFix" result="effect1_dropShadow_33_508"/>
<feBlend mode="normal" in="SourceGraphic" in2="effect1_dropShadow_33_508" result="shape"/>
</filter>
</defs>
</svg>
