<svg width="66" height="66" viewBox="0 0 66 66" fill="none" xmlns="http://www.w3.org/2000/svg">
<g filter="url(#filter0_d_33_512)">
<path d="M33.0001 16C23.6113 16 16.0001 23.6111 16.0001 32.9999C16 42.3888 23.6112 50 33 50C42.3889 50 50 42.3888 50 33C50 23.6112 42.3889 16 33.0001 16Z" fill="#60BBE2"/>
<path d="M23.8213 32.6348L40.138 26.3436C40.8953 26.07 41.5567 26.5283 41.3113 27.6735L41.3127 27.6721L38.5345 40.7607C38.3286 41.6886 37.7772 41.9142 37.0058 41.4771L32.7751 38.359L30.7344 40.3249C30.5088 40.5505 30.3184 40.7409 29.8812 40.7409L30.1816 36.4354L38.0226 29.3517C38.3639 29.0513 37.9465 28.8821 37.4966 29.181L27.8067 35.2818L23.6295 33.9787C22.7227 33.691 22.703 33.0719 23.8213 32.6348Z" fill="white"/>
</g>
<defs>
<filter id="filter0_d_33_512" x="7.62939e-05" y="0" width="65.9999" height="66" filterUnits="userSpaceOnUse" color-interpolation-filters="sRGB">
<feFlood flood-opacity="0" result="BackgroundImageFix"/>
<feColorMatrix in="SourceAlpha" type="matrix" values="0 0 0 0 0 0 0 0 0 0 0 0 0 0 0 0 0 0 127 0" result="hardAlpha"/>
<feOffset/>
<feGaussianBlur stdDeviation="8"/>
<feComposite in2="hardAlpha" operator="out"/>
<feColorMatrix type="matrix" values="0 0 0 0 0.513021 0 0 0 0 0.602604 0 0 0 0 0.625 0 0 0 0.06 0"/>
<feBlend mode="normal" in2="BackgroundImageFix" result="effect1_dropShadow_33_512"/>
<feBlend mode="normal" in="SourceGraphic" in2="effect1_dropShadow_33_512" result="shape"/>
</filter>
</defs>
</svg>
