<svg width="172" height="40" viewBox="0 0 172 40" fill="none" xmlns="http://www.w3.org/2000/svg">
<g clip-path="url(#clip0_50_345)">
<path d="M49.1495 28.1818V11.6363H53.7418C55.9085 11.6363 57.7062 12.3769 59.1349 13.8582C60.5793 15.3394 61.3015 17.3563 61.3015 19.9091C61.3015 22.4618 60.5793 24.4788 59.1349 25.96C57.7062 27.4412 55.9085 28.1818 53.7418 28.1818H49.1495ZM51.1984 26.2672H53.4357C55.0842 26.2672 56.4501 25.7394 57.5334 24.6836C58.6325 23.6121 59.182 22.0206 59.182 19.9091C59.182 17.7975 58.6325 16.2139 57.5334 15.1582C56.4501 14.0866 55.0842 13.5509 53.4357 13.5509H51.1984V26.2672Z" fill="#233565"/>
<path d="M65.4775 28.1818V11.6363H75.0624V13.5509H67.5263V18.42H73.6494V20.3109H67.5263V26.2672H75.2979V28.1818H65.4775Z" fill="#233565"/>
<path d="M79.4595 28.1818V11.6363H81.7439L89.2329 24.6836V11.6363H91.2583V28.1818H88.9739L81.5084 15.1818V28.1818H79.4595Z" fill="#233565"/>
<path d="M99.2718 28.1818V13.5509H94.444V11.6363H106.125V13.5509H101.297V28.1818H99.2718Z" fill="#233565"/>
<path d="M105.956 28.1818L111.796 11.6363H113.727L119.544 28.1818H117.401L115.894 23.7382H109.63L108.122 28.1818H105.956ZM110.242 21.8236H115.282L112.762 14.4018L110.242 21.8236Z" fill="#233565"/>
<path d="M122.809 28.1818V11.6363H124.858V26.2672H132.323V28.1818H122.809Z" fill="#233565"/>
<path d="M136.239 28.1818V11.6363H138.288V28.1818H136.239Z" fill="#233565"/>
<path d="M142.427 19.9091C142.396 17.2933 143.11 15.2212 144.57 13.6927C146.046 12.1642 147.812 11.4157 149.869 11.4472C151.502 11.4472 152.876 11.8727 153.99 12.7236C155.105 13.5588 155.874 14.7406 156.298 16.2691L154.367 16.7891C153.676 14.5042 152.177 13.3618 149.869 13.3618C148.283 13.3618 146.996 13.9448 146.007 15.1109C145.033 16.2612 144.547 17.8606 144.547 19.9091C144.547 21.9575 145.033 23.5648 146.007 24.7309C146.996 25.8812 148.283 26.4563 149.869 26.4563C152.177 26.4563 153.676 25.3139 154.367 23.0291L156.298 23.5491C155.874 25.0775 155.105 26.2672 153.99 27.1182C152.876 27.9533 151.502 28.3709 149.869 28.3709C147.812 28.4024 146.046 27.6539 144.57 26.1254C143.11 24.5969 142.396 22.5248 142.427 19.9091Z" fill="#233565"/>
<path d="M158.411 28.1818L164.252 11.6363H166.183L172 28.1818H169.857L168.35 23.7382H162.085L160.578 28.1818H158.411ZM162.698 21.8236H167.737L165.218 14.4018L162.698 21.8236Z" fill="#233565"/>
<g clip-path="url(#clip1_50_345)">
<path fill-rule="evenodd" clip-rule="evenodd" d="M9.05796 15.5162C9.05796 16.8256 9.15379 18.1573 9.34544 19.5112C9.5371 20.8651 9.8172 22.2078 10.1858 23.5395C10.5543 24.8712 11.0187 26.1622 11.5789 27.4125C12.1392 28.6628 12.7768 29.8428 13.4918 30.9525C13.6687 31.2188 13.8935 31.4297 14.1663 31.585C14.439 31.7404 14.7375 31.8181 15.0619 31.8181C15.4673 31.8181 15.8322 31.7034 16.1565 31.4741C16.4808 31.2447 16.7057 30.934 16.831 30.5419L18.7991 24.6381C19.0571 24.6677 19.3188 24.6862 19.5841 24.6936L20.3802 24.7158C20.6456 24.7158 20.911 24.7121 21.1763 24.7047C21.4417 24.6973 21.7034 24.6751 21.9614 24.6381L23.9295 30.5419C24.0548 30.9266 24.2796 31.2336 24.604 31.463C24.9283 31.6923 25.2932 31.8107 25.6986 31.8181C26.0229 31.8181 26.3215 31.7404 26.5942 31.585C26.867 31.4297 27.0918 31.2188 27.2687 30.9525C27.9911 29.8502 28.6287 28.6739 29.1815 27.4236C29.7344 26.1733 30.1951 24.8823 30.5636 23.5506C30.9322 22.2189 31.216 20.8762 31.415 19.5223C31.6141 18.1684 31.7099 16.833 31.7025 15.5162C31.7025 14.6876 31.5772 13.8886 31.3266 13.1191C31.076 12.3497 30.7111 11.6654 30.2319 11.0661C29.7528 10.4669 29.1631 9.9897 28.4628 9.63459C27.7626 9.27947 26.9628 9.09822 26.0635 9.09082C25.5401 9.09082 25.0499 9.1648 24.5929 9.31277C24.1359 9.46073 23.6789 9.62349 23.2219 9.80105C22.7648 9.9786 22.3115 10.1414 21.8619 10.2893C21.4122 10.4373 20.9183 10.5113 20.3802 10.5113C19.8569 10.5113 19.3667 10.4373 18.9097 10.2893C18.4526 10.1414 17.9956 9.9786 17.5386 9.80105C17.0816 9.62349 16.6283 9.46073 16.1786 9.31277C15.729 9.1648 15.2351 9.09082 14.697 9.09082C13.7977 9.09082 12.9979 9.26838 12.2976 9.62349C11.5974 9.9786 11.0077 10.4558 10.5285 11.055C10.0494 11.6543 9.68452 12.3386 9.4339 13.108C9.18328 13.8775 9.05796 14.6802 9.05796 15.5162ZM18.9207 14.5507C19.3777 14.6987 19.8642 14.7726 20.3802 14.7726C20.8889 14.7726 21.3754 14.6987 21.8397 14.5507C22.3041 14.4027 22.7612 14.24 23.2108 14.0624C23.6605 13.8849 24.1175 13.7221 24.5819 13.5741C24.8221 13.4976 25.0683 13.4408 25.3205 13.4039C25.7158 13.3459 26.0414 13.6772 26.0414 14.0782L-nan -nanL26.0414 14.0782C26.0414 14.4666 25.7354 14.78 25.3531 14.8401C25.2713 14.8529 25.1911 14.8674 25.1126 14.8836C24.8251 14.9428 24.5339 15.0279 24.2391 15.1388C23.9442 15.2498 23.6568 15.3645 23.3767 15.4829C23.0965 15.6012 22.8017 15.7159 22.4921 15.8269C22.1825 15.9379 21.8545 16.0266 21.508 16.0932C21.1616 16.1598 20.7857 16.1931 20.3802 16.1931C19.9822 16.1783 19.6063 16.1413 19.2524 16.0821C18.8986 16.0229 18.5706 15.9379 18.2684 15.8269C17.9661 15.7159 17.6676 15.6012 17.3728 15.4829C17.0779 15.3645 16.7904 15.2498 16.5103 15.1388C16.2302 15.0279 15.9427 14.9391 15.6479 14.8725C15.5741 14.8559 15.4994 14.8413 15.4237 14.8288C15.0381 14.7651 14.7191 14.4547 14.7191 14.0624L-nan -nanL14.7191 14.0624C14.7191 13.6702 15.0375 13.3457 15.4247 13.399C15.6915 13.4357 15.9465 13.4941 16.1897 13.5741C16.6393 13.7221 17.0926 13.8849 17.5497 14.0624C18.0067 14.24 18.4637 14.4027 18.9207 14.5507Z" fill="#81CEB2"/>
</g>
<path fill-rule="evenodd" clip-rule="evenodd" d="M19.9272 38.1818C29.9322 38.1818 38.0428 30.0415 38.0428 20C38.0428 9.95846 29.9322 1.81818 19.9272 1.81818C9.92221 1.81818 1.81156 9.95846 1.81156 20C1.81156 30.0415 9.92221 38.1818 19.9272 38.1818ZM19.9272 40C30.9327 40 39.8544 31.0457 39.8544 20C39.8544 8.9543 30.9327 0 19.9272 0C8.92171 0 0 8.9543 0 20C0 31.0457 8.92171 40 19.9272 40Z" fill="#81CEB2"/>
</g>
<defs>
<clipPath id="clip0_50_345">
<rect width="172" height="40" fill="white"/>
</clipPath>
<clipPath id="clip1_50_345">
<rect width="22.6445" height="22.7273" fill="white" transform="matrix(-1 0 0 1 31.7024 9.09082)"/>
</clipPath>
</defs>
</svg>
