<svg width="36" height="36" viewBox="0 0 36 36" fill="none" xmlns="http://www.w3.org/2000/svg">
<rect width="36" height="36" rx="18" fill="#F5F7F7"/>
<rect x="1" y="1" width="34" height="34" rx="17" stroke="#628BB9" stroke-opacity="0.6" stroke-width="2"/>
<g clip-path="url(#clip0_67_1303)">
<path fill-rule="evenodd" clip-rule="evenodd" d="M20.8449 24.3331C19.9449 24.3 17.3943 23.9475 14.723 21.2769C12.0524 18.6056 11.7005 16.0556 11.6668 15.155C11.6168 13.7825 12.668 12.4494 13.8824 11.9287C14.0286 11.8656 14.1888 11.8416 14.3471 11.859C14.5054 11.8764 14.6565 11.9347 14.7855 12.0281C15.7855 12.7569 16.4755 13.8594 17.068 14.7262C17.1984 14.9167 17.2541 15.1485 17.2246 15.3774C17.1951 15.6063 17.0824 15.8163 16.908 15.9675L15.6886 16.8731C15.6297 16.9157 15.5882 16.9781 15.5719 17.0489C15.5556 17.1198 15.5655 17.1941 15.5999 17.2581C15.8761 17.76 16.3674 18.5075 16.9299 19.07C17.493 19.6325 18.2755 20.1562 18.8124 20.4637C18.8797 20.5015 18.9589 20.5121 19.0338 20.4933C19.1087 20.4744 19.1735 20.4276 19.2149 20.3625L20.0086 19.1544C20.1546 18.9605 20.3698 18.8307 20.6094 18.792C20.8489 18.7533 21.0941 18.8088 21.2936 18.9469C22.173 19.5556 23.1993 20.2337 23.9505 21.1956C24.0515 21.3256 24.1158 21.4803 24.1366 21.6435C24.1573 21.8068 24.1339 21.9726 24.0686 22.1237C23.5455 23.3444 22.2218 24.3837 20.8449 24.3331Z" fill="#628BB9"/>
</g>
<defs>
<clipPath id="clip0_67_1303">
<rect width="15" height="15" fill="white" transform="translate(10.5 10.5)"/>
</clipPath>
</defs>
</svg>
