<svg width="162" height="38" viewBox="0 0 162 38" fill="none" xmlns="http://www.w3.org/2000/svg">
<g clip-path="url(#clip0_67_1262)">
<path d="M46.292 26.7727V11.0546H50.6173C52.658 11.0546 54.3511 11.7581 55.6968 13.1653C57.0572 14.5724 57.7375 16.4886 57.7375 18.9137C57.7375 21.3387 57.0572 23.2549 55.6968 24.662C54.3511 26.0692 52.658 26.7727 50.6173 26.7727H46.292ZM48.2217 24.9539H50.329C51.8816 24.9539 53.1681 24.4524 54.1885 23.4495C55.2236 22.4315 55.7411 20.9196 55.7411 18.9137C55.7411 16.9077 55.2236 15.4033 54.1885 14.4003C53.1681 13.3824 51.8816 12.8734 50.329 12.8734H48.2217V24.9539Z" fill="#233565"/>
<path d="M61.6706 26.7727V11.0546H70.6983V12.8734H63.6004V17.499H69.3675V19.2954H63.6004V24.9539H70.9201V26.7727H61.6706Z" fill="#233565"/>
<path d="M74.8398 26.7727V11.0546H76.9914L84.045 23.4495V11.0546H85.9525V26.7727H83.801L76.7695 14.4227V26.7727H74.8398Z" fill="#233565"/>
<path d="M93.5002 26.7727V12.8734H88.953V11.0546H99.9549V12.8734H95.4077V26.7727H93.5002Z" fill="#233565"/>
<path d="M99.7956 26.7727L105.297 11.0546H107.115L112.594 26.7727H110.576L109.156 22.5513H103.256L101.836 26.7727H99.7956ZM103.833 20.7325H108.579L106.206 13.6817L103.833 20.7325Z" fill="#233565"/>
<path d="M115.669 26.7727V11.0546H117.598V24.9539H124.63V26.7727H115.669Z" fill="#233565"/>
<path d="M128.318 26.7727V11.0546H130.248V26.7727H128.318Z" fill="#233565"/>
<path d="M134.146 18.9137C134.117 16.4287 134.79 14.4602 136.165 13.0081C137.555 11.5561 139.218 10.845 141.156 10.8749C142.694 10.8749 143.987 11.2791 145.037 12.0875C146.087 12.8809 146.812 14.0036 147.211 15.4557L145.392 15.9497C144.742 13.7791 143.329 12.6937 141.156 12.6937C139.662 12.6937 138.45 13.2476 137.518 14.3554C136.601 15.4482 136.143 16.9676 136.143 18.9137C136.143 20.8597 136.601 22.3866 137.518 23.4944C138.45 24.5872 139.662 25.1336 141.156 25.1336C143.329 25.1336 144.742 24.0483 145.392 21.8777L147.211 22.3717C146.812 23.8237 146.087 24.9539 145.037 25.7623C143.987 26.5557 142.694 26.9524 141.156 26.9524C139.218 26.9823 137.555 26.2713 136.165 24.8192C134.79 23.3671 134.117 21.3986 134.146 18.9137Z" fill="#233565"/>
<path d="M149.201 26.7727L154.702 11.0546H156.521L162 26.7727H159.982L158.562 22.5513H152.662L151.242 26.7727H149.201ZM153.238 20.7325H157.985L155.612 13.6817L153.238 20.7325Z" fill="#233565"/>
<g clip-path="url(#clip1_67_1262)">
<path fill-rule="evenodd" clip-rule="evenodd" d="M8.53137 14.7403C8.53137 15.9843 8.62162 17.2494 8.80213 18.5356C8.98264 19.8218 9.24647 21.0974 9.5936 22.3625C9.94074 23.6276 10.3781 24.854 10.9058 26.0418C11.4334 27.2296 12.034 28.3506 12.7074 29.4048C12.874 29.6578 13.0858 29.8582 13.3427 30.0057C13.5995 30.1533 13.8807 30.2271 14.1862 30.2271C14.5681 30.2271 14.9117 30.1182 15.2172 29.9003C15.5227 29.6824 15.7344 29.3873 15.8525 29.0148L17.7062 23.4062C17.9492 23.4343 18.1956 23.4519 18.4456 23.4589L19.1954 23.48C19.4453 23.48 19.6952 23.4765 19.9452 23.4694C20.1951 23.4624 20.4416 23.4413 20.6846 23.4062L22.5383 29.0148C22.6563 29.3802 22.8681 29.6719 23.1735 29.8898C23.479 30.1077 23.8227 30.2201 24.2045 30.2271C24.51 30.2271 24.7912 30.1533 25.0481 30.0057C25.305 29.8582 25.5167 29.6578 25.6833 29.4048C26.3637 28.3576 26.9643 27.2401 27.485 26.0523C28.0057 24.8646 28.4396 23.6381 28.7867 22.373C29.1339 21.1079 29.4012 19.8323 29.5886 18.5461C29.7761 17.2599 29.8663 15.9913 29.8594 14.7403C29.8594 13.9531 29.7413 13.1941 29.5053 12.4631C29.2692 11.7322 28.9256 11.0821 28.4743 10.5128C28.023 9.94349 27.4676 9.49017 26.808 9.15281C26.1485 8.81545 25.3952 8.64326 24.5482 8.63623C24.0553 8.63623 23.5936 8.70651 23.1631 8.84708C22.7327 8.98764 22.3022 9.14227 21.8718 9.31095C21.4413 9.47963 21.0144 9.63425 20.5909 9.77481C20.1673 9.91538 19.7022 9.98566 19.1954 9.98566C18.7024 9.98566 18.2407 9.91538 17.8103 9.77481C17.3798 9.63425 16.9494 9.47963 16.519 9.31095C16.0885 9.14227 15.6615 8.98764 15.238 8.84708C14.8145 8.70651 14.3494 8.63623 13.8425 8.63623C12.9955 8.63623 12.2422 8.80491 11.5827 9.14227C10.9231 9.47963 10.3677 9.93295 9.91644 10.5022C9.46516 11.0715 9.1215 11.7216 8.88544 12.4526C8.64939 13.1835 8.53137 13.9461 8.53137 14.7403ZM17.8207 13.8231C18.2512 13.9637 18.7094 14.034 19.1954 14.034C19.6744 14.034 20.1326 13.9637 20.57 13.8231C21.0074 13.6825 21.4379 13.5279 21.8614 13.3592C22.2849 13.1906 22.7153 13.0359 23.1527 12.8954C23.379 12.8226 23.6109 12.7687 23.8484 12.7336C24.2207 12.6786 24.5274 12.9933 24.5274 13.3742L-nan -nanL24.5274 13.3742C24.5274 13.7432 24.2392 14.041 23.8791 14.098C23.802 14.1102 23.7265 14.124 23.6526 14.1394C23.3818 14.1956 23.1076 14.2764 22.8299 14.3819C22.5522 14.4873 22.2814 14.5962 22.0176 14.7087C21.7538 14.8211 21.476 14.9301 21.1845 15.0355C20.8929 15.1409 20.5839 15.2253 20.2576 15.2885C19.9313 15.3518 19.5772 15.3834 19.1954 15.3834C18.8205 15.3693 18.4664 15.3342 18.1331 15.278C17.7999 15.2217 17.4909 15.1409 17.2063 15.0355C16.9216 14.9301 16.6405 14.8211 16.3627 14.7087C16.085 14.5962 15.8143 14.4873 15.5504 14.3819C15.2866 14.2764 15.0159 14.1921 14.7381 14.1288C14.6686 14.113 14.5983 14.0992 14.527 14.0873C14.1638 14.0268 13.8634 13.7319 13.8634 13.3592L-nan -nanL13.8634 13.3592C13.8634 12.9866 14.1632 12.6783 14.5279 12.729C14.7793 12.7639 15.0194 12.8194 15.2484 12.8954C15.6719 13.0359 16.0989 13.1906 16.5294 13.3592C16.9598 13.5279 17.3903 13.6825 17.8207 13.8231Z" fill="#81CEB2"/>
</g>
<path fill-rule="evenodd" clip-rule="evenodd" d="M18.7686 36.2727C28.1919 36.2727 35.831 28.5395 35.831 19C35.831 9.46054 28.1919 1.72727 18.7686 1.72727C9.34534 1.72727 1.70624 9.46054 1.70624 19C1.70624 28.5395 9.34534 36.2727 18.7686 36.2727ZM18.7686 38C29.1343 38 37.5373 29.4934 37.5373 19C37.5373 8.50659 29.1343 0 18.7686 0C8.40301 0 0 8.50659 0 19C0 29.4934 8.40301 38 18.7686 38Z" fill="#81CEB2"/>
</g>
<defs>
<clipPath id="clip0_67_1262">
<rect width="162" height="38" fill="white"/>
</clipPath>
<clipPath id="clip1_67_1262">
<rect width="21.328" height="21.5909" fill="white" transform="matrix(-1 0 0 1 29.8593 8.63623)"/>
</clipPath>
</defs>
</svg>
