<svg width="16" height="16" viewBox="0 0 16 16" fill="none" xmlns="http://www.w3.org/2000/svg">
<g id="mingcute:phone-fill" clip-path="url(#clip0_67_831)">
<g id="Group">
<path id="Vector" fill-rule="evenodd" clip-rule="evenodd" d="M10.8449 14.3331C9.94488 14.3 7.39425 13.9475 4.723 11.2769C2.05238 8.60562 1.7005 6.05562 1.66675 5.155C1.61675 3.7825 2.668 2.44937 3.88238 1.92875C4.02861 1.8656 4.18875 1.84156 4.34708 1.85898C4.50541 1.8764 4.6565 1.93469 4.7855 2.02812C5.7855 2.75687 6.4755 3.85937 7.068 4.72625C7.19837 4.9167 7.25411 5.14846 7.2246 5.37737C7.19509 5.60628 7.0824 5.81633 6.908 5.9675L5.68863 6.87312C5.62972 6.91566 5.58825 6.97814 5.57193 7.04895C5.5556 7.11976 5.56553 7.19408 5.59988 7.25812C5.87613 7.76 6.36738 8.5075 6.92988 9.07C7.493 9.6325 8.2755 10.1562 8.81238 10.4637C8.87969 10.5015 8.95892 10.5121 9.03379 10.4933C9.10865 10.4744 9.17345 10.4276 9.21488 10.3625L10.0086 9.15437C10.1546 8.96053 10.3698 8.83067 10.6094 8.79199C10.8489 8.75331 11.0941 8.80881 11.2936 8.94687C12.173 9.55562 13.1993 10.2337 13.9505 11.1956C14.0515 11.3256 14.1158 11.4803 14.1366 11.6435C14.1573 11.8068 14.1339 11.9726 14.0686 12.1237C13.5455 13.3444 12.2218 14.3837 10.8449 14.3331Z" fill="#628BB9"/>
</g>
</g>
<defs>
<clipPath id="clip0_67_831">
<rect width="15" height="15" fill="white" transform="translate(0.5 0.5)"/>
</clipPath>
</defs>
</svg>
