<svg width="46" height="46" viewBox="0 0 46 46" fill="none" xmlns="http://www.w3.org/2000/svg">
<g id="Frame">
<g id="Group">
<path id="Vector" d="M11.1376 28.4595L11.1377 28.4594C10.7101 27.6576 10.2763 26.841 9.89351 25.9828H6.51074C6.28544 25.9828 6.06936 25.8933 5.91005 25.7339C5.75073 25.5746 5.66123 25.3585 5.66123 25.1332C5.66123 24.9079 5.75073 24.6919 5.91005 24.5325C6.06936 24.3732 6.28544 24.2837 6.51074 24.2837H9.38288H10.9606H17.0039H28.9962H35.0403H36.6172H39.4894C39.7147 24.2837 39.9308 24.3732 40.0901 24.5325C40.2494 24.6919 40.3389 24.9079 40.3389 25.1332C40.3389 25.3585 40.2494 25.5746 40.0901 25.7339C39.9308 25.8933 39.7147 25.9828 39.4894 25.9828H36.1067C35.7255 26.841 35.2953 27.6574 34.8614 28.4599L34.859 28.4644L34.8589 28.4643C33.9089 30.0268 33.2231 31.7353 32.8291 33.521C32.3694 36.1523 31.3153 38.644 29.747 40.8063L29.6352 40.9754C29.4839 41.2041 29.3449 41.4141 29.2258 41.6112C29.2257 41.6112 29.2257 41.6113 29.2257 41.6113L29.1401 41.5596C28.9902 41.8086 28.7782 42.0143 28.5249 42.1567C28.2716 42.2992 27.9856 42.3734 27.695 42.3721L11.1376 28.4595ZM11.1376 28.4595L11.1405 28.4643M11.1376 28.4595L11.1405 28.4643M11.1405 28.4643C12.0908 30.0266 12.7767 31.7352 13.1702 33.5209M11.1405 28.4643L13.1702 33.5209M13.1702 33.5209C13.6298 36.1525 14.6843 38.6443 16.2532 40.8064L16.2995 40.8761C16.477 41.1431 16.6381 41.3856 16.7745 41.6113L13.1702 33.5209ZM31.1574 33.2325L31.1574 33.2325L31.1567 33.2363C30.7387 35.6308 29.7746 37.8968 28.3391 39.8584L28.339 39.8583L28.3366 39.8619C28.1289 40.1732 27.9393 40.4593 27.7777 40.7213C27.7655 40.7362 27.7494 40.7474 27.7311 40.7535C27.7115 40.76 27.6904 40.7605 27.6706 40.7548C27.6507 40.7492 27.6331 40.7376 27.6199 40.7218C27.6075 40.7069 27.5997 40.6889 27.5972 40.6697V35.6264C27.5972 34.4072 27.1128 33.2379 26.2507 32.3758C25.3886 31.5137 24.2193 31.0294 23.0001 31.0294C21.7808 31.0294 20.6116 31.5137 19.7494 32.3758C18.8873 33.2379 18.403 34.4072 18.403 35.6264V40.6702C18.4006 40.6895 18.3928 40.7079 18.3804 40.723C18.3672 40.739 18.3495 40.7506 18.3295 40.7563C18.3096 40.762 18.2884 40.7616 18.2688 40.755C18.2504 40.7488 18.2341 40.7375 18.2219 40.7225C18.0633 40.4627 17.8768 40.1822 17.6737 39.8768L17.6729 39.8756L17.6643 39.8628L17.6644 39.8627L17.6618 39.8591C16.2257 37.8978 15.2613 35.6317 14.8434 33.237L14.8435 33.237L14.8427 33.2332C14.4201 31.2656 13.6738 29.3817 12.6343 27.6584C12.3344 27.0957 12.0415 26.542 11.7686 25.9835H17.0039L28.9962 25.9828H34.232C33.9536 26.5462 33.6649 27.1046 33.3659 27.6575C32.3264 29.3808 31.5801 31.2647 31.1574 33.2325Z" fill="#81CEB2" stroke="#81CEB2" stroke-width="0.2"/>
</g>
<g id="Group_2">
<g id="Vector_2">
<path fill-rule="evenodd" clip-rule="evenodd" d="M12.1649 21.9458H9.90482C9.59285 21.9451 9.28604 21.8661 9.01253 21.7161C8.73902 21.566 8.50756 21.3497 8.33937 21.0869C6.55143 18.3243 5.63454 16.4721 5.70753 13.1822C5.70753 6.82815 9.15577 3.03491 14.9323 3.03491C17.8649 3.03491 20.7237 4.38266 23.1424 5.66767C25.6426 4.02922 28.5489 3.11772 31.537 3.03491C37.3136 3.03491 40.7618 6.82815 40.7618 13.1822C40.8337 16.4717 39.9176 18.3234 38.1318 21.0869C37.9632 21.3499 37.7312 21.5663 37.4572 21.7164C37.1832 21.8664 36.876 21.9453 36.5636 21.9458H34.3044H32.4595H14.0099H12.1649ZM23.2744 7.83083C20.8412 6.51554 17.8153 4.87987 14.9323 4.87987C10.2424 4.87987 7.5525 7.90561 7.5525 13.1822C7.4737 16.1236 8.29191 17.6356 9.89836 20.1008H36.5636C38.1746 17.6373 38.9956 16.1246 38.9168 13.1822C38.9168 7.90561 36.2269 4.87987 31.537 4.87987C29.2572 4.94249 27.0275 5.56264 25.0427 6.68609C25.7396 7.0781 26.4663 7.41461 27.2161 7.69252C27.4485 7.76983 27.6407 7.9363 27.7504 8.15532C27.8601 8.37434 27.8783 8.62795 27.8009 8.86038C27.7236 9.0928 27.5572 9.28499 27.3381 9.39467C27.1191 9.50436 26.8655 9.52254 26.6331 9.44523C25.4726 8.9985 24.35 8.45895 23.2762 7.83181L23.2744 7.83083Z" fill="#81CEB2"/>
</g>
</g>
</g>
</svg>
