<svg width="46" height="46" viewBox="0 0 46 46" fill="none" xmlns="http://www.w3.org/2000/svg">
<g id="Frame">
<g id="Group">
<path id="Vector" d="M35.2625 3.8982L30.6501 8.5106C30.4771 8.68356 30.3799 8.91816 30.3798 9.1628V19.5149C29.8006 19.9957 29.2698 20.5321 28.795 21.1163C28.0304 22.14 27.6158 23.3827 27.6124 24.6605V39.6047C27.6124 40.3386 27.904 41.0425 28.423 41.5615C28.9419 42.0805 29.6459 42.3721 30.3798 42.3721H32.2248C32.9588 42.3721 33.6627 42.0805 34.1817 41.5615C34.7007 41.0425 34.9922 40.3386 34.9922 39.6047V24.6605C34.9895 23.3818 34.5748 22.138 33.8096 21.1135C33.3344 20.5305 32.8037 19.9951 32.2248 19.5149V9.5447L36.5669 5.20259C36.655 5.11749 36.7253 5.0157 36.7736 4.90315C36.822 4.79061 36.8474 4.66956 36.8485 4.54707C36.8496 4.42459 36.8262 4.30312 36.7798 4.18975C36.7335 4.07638 36.665 3.97338 36.5783 3.88677C36.4917 3.80015 36.3887 3.73165 36.2754 3.68527C36.162 3.63889 36.0405 3.61555 35.918 3.61661C35.7955 3.61768 35.6745 3.64312 35.562 3.69147C35.4494 3.73982 35.3476 3.81009 35.2625 3.8982ZM33.1473 39.6047C33.1473 39.8493 33.0501 40.084 32.8771 40.2569C32.7041 40.4299 32.4694 40.5271 32.2248 40.5271H30.3798C30.1352 40.5271 29.9005 40.4299 29.7275 40.2569C29.5545 40.084 29.4573 39.8493 29.4573 39.6047V37.7597L33.1473 37.7708V39.6047ZM33.1473 35.9286L29.4573 35.9147V31.3023L33.1473 31.3134V35.9286ZM32.3336 22.2224C32.8596 22.9266 33.1449 23.7815 33.1473 24.6605V29.4684L29.4573 29.4574V24.6605C29.4596 23.7806 29.7449 22.9248 30.271 22.2196L30.9333 21.3395C30.9763 21.2823 31.032 21.2358 31.096 21.2037C31.1601 21.1717 31.2307 21.155 31.3023 21.155C31.3739 21.155 31.4445 21.1717 31.5086 21.2037C31.5726 21.2358 31.6283 21.2823 31.6713 21.3395L32.3336 22.2224ZM14.6977 3.62791C13.3154 3.63592 11.9862 4.16082 10.9715 5.09938C9.95674 6.03793 9.32989 7.32221 9.21424 8.69961C9.09859 10.077 9.50251 11.4478 10.3465 12.5425C11.1906 13.6371 12.4136 14.3763 13.7752 14.6147V22.2823C13.196 22.7632 12.6652 23.2995 12.1904 23.8837C11.4258 24.9075 11.0111 26.1502 11.0077 27.4279V39.6047C11.0077 40.3386 11.2993 41.0425 11.8183 41.5615C12.3373 42.0805 13.0412 42.3721 13.7752 42.3721H15.6201C16.3541 42.3721 17.058 42.0805 17.577 41.5615C18.096 41.0425 18.3876 40.3386 18.3876 39.6047V27.4279C18.3848 26.1492 17.9701 24.9055 17.205 23.881C16.7298 23.298 16.199 22.7626 15.6201 22.2823V14.6147C16.9817 14.3763 18.2047 13.6371 19.0488 12.5425C19.8928 11.4478 20.2967 10.077 20.1811 8.69961C20.0654 7.32221 19.4386 6.03793 18.4238 5.09938C17.4091 4.16082 16.0799 3.63592 14.6977 3.62791ZM16.5426 39.6047C16.5426 39.8493 16.4454 40.084 16.2724 40.2569C16.0994 40.4299 15.8648 40.5271 15.6201 40.5271H13.7752C13.5305 40.5271 13.2959 40.4299 13.1229 40.2569C12.9499 40.084 12.8527 39.8493 12.8527 39.6047V37.7597L16.5426 37.7708V39.6047ZM16.5426 35.9286L12.8527 35.9147V31.3023L16.5426 31.3134V35.9286ZM15.729 24.9898C16.255 25.6941 16.5402 26.5489 16.5426 27.4279V29.4684L12.8527 29.4574V27.4279C12.8549 26.5481 13.1402 25.6923 13.6663 24.987L14.3287 24.107C14.3716 24.0497 14.4273 24.0032 14.4914 23.9712C14.5554 23.9392 14.6261 23.9225 14.6977 23.9225C14.7693 23.9225 14.8399 23.9392 14.9039 23.9712C14.968 24.0032 15.0237 24.0497 15.0667 24.107L15.729 24.9898ZM14.6977 12.8527C13.9679 12.8527 13.2545 12.6363 12.6477 12.2309C12.0408 11.8254 11.5679 11.2491 11.2886 10.5749C11.0093 9.90062 10.9363 9.1587 11.0786 8.44293C11.221 7.72715 11.5724 7.06967 12.0885 6.55363C12.6045 6.03758 13.262 5.68615 13.9778 5.54377C14.6936 5.4014 15.4355 5.47447 16.1097 5.75375C16.784 6.03303 17.3603 6.50598 17.7657 7.11279C18.1712 7.71959 18.3876 8.433 18.3876 9.1628C18.3876 10.1414 17.9988 11.08 17.3068 11.772C16.6148 12.464 15.6763 12.8527 14.6977 12.8527Z" fill="#81CEB2"/>
</g>
</g>
</svg>
