<svg width="46" height="46" viewBox="0 0 46 46" fill="none" xmlns="http://www.w3.org/2000/svg">
<g id="Frame">
<g id="Group">
<path id="Vector" d="M27.1511 15.6202C25.5838 15.6545 24.0545 16.1095 22.7232 16.9375C21.5861 16.1334 20.2404 15.6759 18.8488 15.6202C15.7188 15.6202 13.7751 17.6496 13.7751 20.9143C13.8341 23.1913 14.4208 25.4236 15.4891 27.4353C16.2518 29.0542 16.874 30.7356 17.3488 32.461C17.4714 32.9232 17.7436 33.3318 18.123 33.6228C18.5024 33.9139 18.9675 34.0711 19.4456 34.0698H19.4632C20.0354 34.063 20.5821 33.8313 20.9849 33.4248C21.3878 33.0183 21.6146 32.4697 21.6162 31.8973V29.6585C21.6312 29.4932 21.6792 29.3327 21.7574 29.1863C21.8356 29.04 21.9424 28.9109 22.0715 28.8066C22.2005 28.7023 22.3492 28.625 22.5087 28.5793C22.6682 28.5336 22.8352 28.5204 23 28.5404C23.1647 28.5204 23.3317 28.5336 23.4912 28.5793C23.6507 28.625 23.7994 28.7023 23.9285 28.8066C24.0575 28.9109 24.1643 29.04 24.2425 29.1863C24.3207 29.3327 24.3687 29.4932 24.3837 29.6585V31.8973C24.3856 32.4697 24.6125 33.0184 25.0156 33.4249C25.4186 33.8314 25.9653 34.063 26.5377 34.0698H26.5561C27.034 34.0707 27.4987 33.9133 27.8777 33.6223C28.2566 33.3312 28.5286 32.9229 28.6511 32.461C29.1259 30.7356 29.7481 29.0542 30.5108 27.4353C31.5791 25.4236 32.1658 23.1913 32.2248 20.9143C32.2248 17.6496 30.2811 15.6202 27.1511 15.6202ZM28.8245 26.6844C28.0208 28.3935 27.3662 30.1688 26.8679 31.9905C26.8496 32.0588 26.8089 32.119 26.7524 32.1614C26.6959 32.2039 26.6268 32.2262 26.5561 32.2248C26.4697 32.2239 26.3872 32.189 26.3263 32.1277C26.2654 32.0665 26.231 31.9837 26.2305 31.8973V29.6585C26.2215 29.2491 26.1298 28.8457 25.9608 28.4726C25.7919 28.0996 25.5492 27.7646 25.2474 27.4877C24.9456 27.2109 24.5909 26.998 24.2047 26.8619C23.8184 26.7257 23.4086 26.6691 23 26.6955C22.5914 26.6694 22.1818 26.7262 21.7958 26.8625C21.4098 26.9987 21.0553 27.2117 20.7537 27.4884C20.4521 27.7652 20.2096 28.1002 20.0408 28.4731C19.8719 28.846 19.7803 29.2492 19.7713 29.6585V31.8973C19.771 31.9835 19.737 32.0661 19.6764 32.1274C19.6158 32.1886 19.5336 32.2236 19.4475 32.2248C19.3767 32.2263 19.3074 32.204 19.2508 32.1615C19.1941 32.1191 19.1533 32.0589 19.1348 31.9905C18.6365 30.1688 17.9819 28.3935 17.1782 26.6844C16.2198 24.9073 15.6865 22.9322 15.6201 20.9143C15.6201 18.0638 17.3728 17.4651 18.8488 17.4651C20.2199 17.6047 21.5159 18.1592 22.5636 19.0546C23.1927 19.5719 23.922 19.9535 24.7056 20.1754C24.9466 20.2178 25.1946 20.1628 25.395 20.0224C25.5954 19.882 25.7319 19.6678 25.7743 19.4268C25.8168 19.1858 25.7617 18.9378 25.6213 18.7374C25.481 18.537 25.2667 18.4005 25.0257 18.3581C24.8266 18.302 24.6377 18.2149 24.4658 18.0998C25.3057 17.7001 26.2211 17.4838 27.1511 17.4651C28.6271 17.4651 30.3798 18.0638 30.3798 20.9143C30.3142 22.932 29.7819 24.9071 28.8245 26.6844Z" fill="#81CEB2"/>
<path id="Vector_2" d="M34.9923 5.47289H29.2877C29.0976 4.93517 28.746 4.46932 28.281 4.13906C27.816 3.80881 27.2603 3.63029 26.69 3.62793H19.3101C18.7398 3.63029 18.1841 3.80881 17.7191 4.13906C17.2541 4.46932 16.9025 4.93517 16.7124 5.47289H11.0078C10.0292 5.47289 9.09062 5.86165 8.39862 6.55364C7.70663 7.24564 7.31787 8.18419 7.31787 9.16281V38.6822C7.31787 39.6608 7.70663 40.5994 8.39862 41.2914C9.09062 41.9834 10.0292 42.3721 11.0078 42.3721H34.9923C35.9709 42.3721 36.9095 41.9834 37.6015 41.2914C38.2935 40.5994 38.6822 39.6608 38.6822 38.6822V9.16281C38.6822 8.18419 38.2935 7.24564 37.6015 6.55364C36.9095 5.86165 35.9709 5.47289 34.9923 5.47289ZM18.3876 6.39537C18.3876 6.15071 18.4848 5.91608 18.6578 5.74308C18.8308 5.57008 19.0655 5.47289 19.3101 5.47289H26.69C26.9346 5.47289 27.1693 5.57008 27.3423 5.74308C27.5153 5.91608 27.6124 6.15071 27.6124 6.39537V7.31785C27.6124 7.56251 27.5153 7.79715 27.3423 7.97014C27.1693 8.14314 26.9346 8.24033 26.69 8.24033H19.3101C19.0655 8.24033 18.8308 8.14314 18.6578 7.97014C18.4848 7.79715 18.3876 7.56251 18.3876 7.31785V6.39537ZM36.8373 38.6822C36.8373 39.1715 36.6429 39.6408 36.2969 39.9868C35.9509 40.3328 35.4816 40.5272 34.9923 40.5272H11.0078C10.5185 40.5272 10.0492 40.3328 9.70321 39.9868C9.35721 39.6408 9.16283 39.1715 9.16283 38.6822V9.16281C9.16283 8.6735 9.35721 8.20423 9.70321 7.85823C10.0492 7.51223 10.5185 7.31785 11.0078 7.31785H16.5427C16.5427 8.05182 16.8342 8.75573 17.3532 9.27473C17.8722 9.79373 18.5761 10.0853 19.3101 10.0853H26.69C27.4239 10.0853 28.1278 9.79373 28.6468 9.27473C29.1658 8.75573 29.4574 8.05182 29.4574 7.31785H34.9923C35.4816 7.31785 35.9509 7.51223 36.2969 7.85823C36.6429 8.20423 36.8373 8.6735 36.8373 9.16281V38.6822Z" fill="#81CEB2"/>
</g>
</g>
</svg>
