<svg width="46" height="46" viewBox="0 0 46 46" fill="none" xmlns="http://www.w3.org/2000/svg">
<g id="Frame" clip-path="url(#clip0_67_912)">
<g id="Group">
<path id="Vector" d="M6.65964 25.2985L6.6598 25.2983L6.65292 25.2948C6.5584 25.2476 6.41521 25.1991 6.26759 25.1991C6.26444 25.1991 6.26122 25.1991 6.25793 25.1991C6.2024 25.199 6.12748 25.1988 6.06321 25.231C5.99789 25.2636 5.95649 25.3204 5.93001 25.3953C5.65014 25.5081 5.30049 25.5823 4.99031 25.5823C3.6831 25.5823 2.6209 24.5201 2.6209 23.2129C2.6209 21.9057 3.6831 20.8435 4.99031 20.8435C5.31483 20.8435 5.642 20.9248 5.93016 21.0483L5.93015 21.0483L5.93242 21.0492C6.17004 21.1443 6.41625 21.1456 6.65965 20.9996C6.89983 20.8554 7.0421 20.6166 7.08944 20.3799L7.08949 20.3799L7.09002 20.3768C8.40173 12.5065 15.1716 6.83598 23.1703 6.83598C31.1233 6.83598 37.8494 12.5024 39.2067 20.2843C39.2114 20.5459 39.4188 20.7398 39.5872 20.8661L39.5978 20.874L39.6101 20.8789C39.831 20.9673 40.0727 21.0204 40.32 20.9227C40.5641 20.8416 40.8082 20.8009 41.0948 20.8009C42.402 20.8009 43.4642 21.8631 43.4642 23.1703C43.4642 24.4775 42.402 25.5397 41.0948 25.5397C40.8149 25.5397 40.5309 25.4598 40.2776 25.3755C40.0471 25.2842 39.7555 25.2769 39.5489 25.4289C39.3181 25.5686 39.172 25.7602 39.1234 26.0033L39.1231 26.005C37.7269 33.6626 30.9571 39.2066 23.1277 39.2066C15.2141 39.2066 8.48612 33.5784 7.08979 25.8774L7.08944 25.8756C7.04052 25.631 6.89286 25.4385 6.65964 25.2985ZM4.94773 27.1873C5.18073 27.1873 5.41259 27.1532 5.63774 27.1162C7.51263 35.1608 14.7259 40.8968 23.1277 40.8968C31.4856 40.8968 38.6979 35.1628 40.5321 27.162C40.6914 27.1873 40.8665 27.1873 41.0034 27.1873H41.0096C43.2355 27.1873 45.0692 25.3976 45.0692 23.1278C45.0692 20.8579 43.2355 19.0682 41.0096 19.0682C40.9433 19.0682 40.8682 19.0783 40.7969 19.0879L40.7782 19.0903C40.7255 19.0974 40.6731 19.104 40.6213 19.1077C38.8349 10.9295 31.5759 5.10325 23.0851 5.10325C14.5979 5.10325 7.34203 10.9667 5.55141 19.1388C5.5512 19.1388 5.55098 19.1387 5.55076 19.1387C5.33644 19.1022 5.13718 19.0682 4.90515 19.0682C2.67784 19.0682 0.888159 20.8593 0.888159 23.1278C0.888159 25.3976 2.72183 27.1873 4.94773 27.1873Z" fill="#81CEB2" stroke="#81CEB2" stroke-width="0.2"/>
<path id="Vector_2" d="M28.5072 26.3224V26.321C28.5072 25.84 28.1218 25.4546 27.6408 25.4546H18.2315C17.7505 25.4546 17.3651 25.84 17.3651 26.321C17.3651 29.3981 19.8357 31.9133 22.9148 31.9133C25.9942 31.9133 28.4638 29.3981 28.5072 26.3224ZM23.807 12.6177L23.807 12.6177L23.8081 12.6172C25.4223 11.8755 25.8342 10.5958 25.6093 9.65087C25.344 8.50169 24.2841 7.61523 23.1277 7.61523C21.2835 7.61523 19.7494 9.151 19.7494 11.0362C19.7494 13.2195 21.4965 14.968 23.6386 14.968C26.1229 14.968 28.1231 12.9203 28.1665 10.3992L28.1665 10.3992V10.3975C28.1665 7.49077 25.8237 5.10325 22.9148 5.10325C22.4339 5.10325 22.0485 5.48863 22.0485 5.96962C22.0485 6.4506 22.4339 6.83598 22.9148 6.83598C24.8599 6.83598 26.4764 8.45092 26.4764 10.4401C26.4764 12.0028 25.2013 13.2778 23.6386 13.2778C22.419 13.2778 21.4395 12.2606 21.4395 11.0362C21.4395 10.068 22.2052 9.30539 23.1277 9.30539C23.5066 9.30539 23.8907 9.61309 23.9663 9.99137C24.0218 10.2687 23.9137 10.4924 23.7373 10.6737C23.5587 10.8573 23.3167 10.9894 23.1297 11.0725C22.6974 11.2646 22.5024 11.7487 22.6957 12.1838C22.8878 12.616 23.3719 12.8111 23.807 12.6177ZM17.6631 20.5306C17.6631 21.0116 18.0485 21.397 18.5295 21.397C19.0026 21.397 19.4033 21.0156 19.3107 20.521C19.3054 18.767 17.8577 17.3226 16.1027 17.3226C14.3444 17.3226 12.8946 18.7723 12.8946 20.5306C12.8946 21.0116 13.28 21.397 13.761 21.397C14.242 21.397 14.6274 21.0116 14.6274 20.5306C14.6274 19.6917 15.3064 19.0127 16.1453 19.0127C16.9841 19.0127 17.6631 19.6917 17.6631 20.5306ZM31.1172 20.5306C31.1172 21.0116 31.5025 21.397 31.9835 21.397C32.4566 21.397 32.8573 21.0156 32.7647 20.521C32.7594 18.767 31.3118 17.3226 29.5567 17.3226C27.7984 17.3226 26.3487 18.7723 26.3487 20.5306C26.3487 21.0116 26.734 21.397 27.215 21.397C27.696 21.397 28.0814 21.0116 28.0814 20.5306C28.0814 19.6917 28.7604 19.0127 29.5993 19.0127C30.4381 19.0127 31.1172 19.6917 31.1172 20.5306ZM22.9148 30.1805C21.0477 30.1805 19.4983 28.8708 19.1201 27.1447H26.7068C26.2902 28.8731 24.7796 30.1805 22.9148 30.1805Z" fill="#81CEB2" stroke="#81CEB2" stroke-width="0.2"/>
</g>
</g>
<defs>
<clipPath id="clip0_67_912">
<rect width="44.2791" height="44.2791" fill="white" transform="translate(0.860474 0.860474)"/>
</clipPath>
</defs>
</svg>
