<svg width="46" height="46" viewBox="0 0 46 46" fill="none" xmlns="http://www.w3.org/2000/svg">
<g id="Frame">
<g id="Group">
<path id="Vector" d="M40.5272 20.2326H39.7597C40.2629 18.7467 40.5221 17.189 40.5272 15.6202C40.5272 9.26614 37.0789 5.4729 31.3024 5.4729C28.3142 5.55557 25.4079 6.46707 22.9078 8.10566C20.489 6.82064 17.6303 5.4729 14.6977 5.4729C8.92113 5.4729 5.4729 9.26614 5.4729 15.6202C5.47797 17.189 5.73716 18.7467 6.2404 20.2326H5.4729C5.22824 20.2326 4.9936 20.3298 4.8206 20.5028C4.6476 20.6758 4.55042 20.9104 4.55042 21.1551C4.55042 21.3997 4.6476 21.6344 4.8206 21.8074C4.9936 21.9804 5.22824 22.0776 5.4729 22.0776H6.94886C7.42579 23.1559 7.97005 24.1808 8.50878 25.1909C9.68595 27.1261 10.5353 29.2425 11.0225 31.4546C11.5849 34.6768 12.876 37.7279 14.7973 40.375C15.0381 40.7375 15.2586 41.0668 15.4431 41.3722C15.6278 41.6784 15.8887 41.9315 16.2004 42.1067C16.5122 42.282 16.864 42.3734 17.2216 42.3721C17.7753 42.3714 18.3061 42.1511 18.6976 41.7596C19.0891 41.3681 19.3094 40.8373 19.3101 40.2836V34.0698C19.3101 33.0912 19.6989 32.1526 20.3909 31.4606C21.0829 30.7686 22.0214 30.3799 23 30.3799C23.9787 30.3799 24.9172 30.7686 25.6092 31.4606C26.3012 32.1526 26.6899 33.0912 26.6899 34.0698V40.2836C26.6907 40.8373 26.911 41.3681 27.3025 41.7596C27.694 42.1511 28.2248 42.3714 28.7784 42.3721C29.1361 42.3737 29.488 42.2824 29.7998 42.1071C30.1116 41.9318 30.3725 41.6786 30.557 41.3722C30.7415 41.0668 30.9638 40.7375 31.2027 40.375C33.1233 37.7275 34.4141 34.6765 34.9766 31.4546C35.4642 29.2426 36.3136 27.1263 37.4904 25.1909C38.0365 24.1808 38.5761 23.1559 39.0512 22.0776H40.5272C40.7718 22.0776 41.0065 21.9804 41.1795 21.8074C41.3525 21.6344 41.4496 21.3997 41.4496 21.1551C41.4496 20.9104 41.3525 20.6758 41.1795 20.5028C41.0065 20.3298 40.7718 20.2326 40.5272 20.2326ZM35.8649 24.3229C34.5917 26.4329 33.6777 28.7398 33.1602 31.1492C32.6425 34.1149 31.4484 36.9215 29.6705 39.351C29.4131 39.7366 29.1797 40.089 28.9814 40.4109C28.9511 40.4509 28.9094 40.4808 28.8618 40.4967C28.8142 40.5126 28.7629 40.5138 28.7146 40.5C28.6663 40.4862 28.6234 40.4582 28.5913 40.4196C28.5592 40.381 28.5396 40.3336 28.5349 40.2836V34.0698C28.5349 32.6019 27.9518 31.194 26.9138 30.156C25.8758 29.1181 24.468 28.5349 23 28.5349C21.5321 28.5349 20.1243 29.1181 19.0863 30.156C18.0483 31.194 17.4651 32.6019 17.4651 34.0698V40.2836C17.4608 40.3339 17.4414 40.3817 17.4093 40.4207C17.3772 40.4596 17.3341 40.4879 17.2856 40.5018C17.2371 40.5157 17.1855 40.5146 17.1377 40.4985C17.0898 40.4824 17.048 40.4522 17.0177 40.4119C16.8203 40.0881 16.5869 39.7375 16.3305 39.3519C14.5519 36.9227 13.3573 34.1161 12.8398 31.1501C12.3223 28.7407 11.4083 26.4339 10.1351 24.3238C9.73383 23.571 9.34178 22.8294 8.98017 22.0785H15.6202V23.001C15.6202 23.9796 16.0089 24.9181 16.7009 25.6101C17.3929 26.3021 18.3315 26.6909 19.3101 26.6909H26.6899C27.6686 26.6909 28.6071 26.3021 29.2991 25.6101C29.9911 24.9181 30.3799 23.9796 30.3799 23.001V22.0776H37.0217C36.6511 22.8336 36.2654 23.5822 35.8649 24.3229ZM17.4651 23V19.3101C17.4651 18.8208 17.6595 18.3515 18.0055 18.0055C18.3515 17.6595 18.8208 17.4651 19.3101 17.4651H26.6899C27.1793 17.4651 27.6485 17.6595 27.9945 18.0055C28.3405 18.3515 28.5349 18.8208 28.5349 19.3101V23C28.5349 23.4893 28.3405 23.9586 27.9945 24.3046C27.6485 24.6506 27.1793 24.845 26.6899 24.845H19.3101C18.8208 24.845 18.3515 24.6506 18.0055 24.3046C17.6595 23.9586 17.4651 23.4893 17.4651 23ZM37.8188 20.2326H30.3799V19.3101C30.3799 18.3315 29.9911 17.3929 29.2991 16.7009C28.6071 16.0089 27.6686 15.6202 26.6899 15.6202H19.3101C18.3315 15.6202 17.3929 16.0089 16.7009 16.7009C16.0089 17.3929 15.6202 18.3315 15.6202 19.3101V20.2326H8.18222C7.61625 18.7604 7.32334 17.1974 7.31786 15.6202C7.31786 10.3436 10.0078 7.31786 14.6977 7.31786C17.5814 7.31786 20.608 8.95434 23.0415 10.2698C24.1153 10.8969 25.2379 11.4365 26.3984 11.8832C26.6309 11.9605 26.8845 11.9423 27.1035 11.8327C27.3225 11.723 27.489 11.5308 27.5663 11.2984C27.6436 11.0659 27.6254 10.8123 27.5158 10.5933C27.4061 10.3743 27.2139 10.2078 26.9815 10.1305C26.2325 9.85175 25.5065 9.51494 24.8099 9.12316C26.7937 7.99909 29.0231 7.37919 31.3024 7.31786C35.9922 7.31786 38.6822 10.3436 38.6822 15.6202C38.6766 17.1973 38.384 18.7602 37.8188 20.2326Z" fill="#81CEB2"/>
</g>
</g>
</svg>
