<svg width="46" height="46" viewBox="0 0 46 46" fill="none" xmlns="http://www.w3.org/2000/svg">
<g id="Frame">
<g id="Group">
<path id="Vector" d="M6.39512 15.6202C6.39512 19.5038 7.93751 22.3949 9.42916 25.1909C10.6059 27.1263 11.4553 29.2426 11.9429 31.4546C12.5057 34.6767 13.7964 37.728 15.7168 40.3759C15.9585 40.7375 16.178 41.0668 16.3625 41.3731C16.5993 41.7626 16.957 42.0639 17.3811 42.2309C17.8053 42.3979 18.2724 42.4214 18.7112 42.2979C19.1499 42.1744 19.5362 41.9106 19.8109 41.5469C20.0856 41.1831 20.2336 40.7394 20.2323 40.2836V34.0698C20.2323 33.0912 20.6211 32.1526 21.3131 31.4606C22.0051 30.7686 22.9436 30.3799 23.9223 30.3799C24.9009 30.3799 25.8394 30.7686 26.5314 31.4606C27.2234 32.1526 27.6122 33.0912 27.6122 34.0698V40.2836C27.6129 40.8373 27.8332 41.3681 28.2247 41.7596C28.6162 42.1511 29.147 42.3714 29.7007 42.3721C30.0584 42.3735 30.4104 42.2821 30.7223 42.1068C31.0342 41.9316 31.2953 41.6784 31.4801 41.3721C31.6646 41.0668 31.886 40.7375 32.1259 40.3759C34.0463 37.728 35.337 34.6767 35.8997 31.4546C36.3874 29.2426 37.2367 27.1263 38.4135 25.1909C39.907 22.3949 41.4494 19.5038 41.4494 15.6202C41.4494 9.26613 38.0012 5.47289 32.2246 5.47289C29.2364 5.55536 26.3301 6.46688 23.83 8.10565C21.4113 6.82063 18.5525 5.47289 15.6199 5.47289C14.8424 5.47675 14.0674 5.56333 13.3082 5.73118L11.8553 2.34199C11.7841 2.17613 11.6659 2.03479 11.5152 1.93547C11.3645 1.83614 11.188 1.7832 11.0075 1.7832C10.8271 1.7832 10.6505 1.83614 10.4999 1.93547C10.3492 2.03479 10.2309 2.17613 10.1598 2.34199L7.8139 7.81414L2.34174 10.16C2.17589 10.2312 2.03454 10.3494 1.93522 10.5001C1.8359 10.6508 1.78296 10.8273 1.78296 11.0078C1.78296 11.1882 1.8359 11.3648 1.93522 11.5154C2.03454 11.6661 2.17589 11.7844 2.34174 11.8555L6.52981 13.6507C6.44305 14.3036 6.39807 14.9615 6.39512 15.6202ZM15.6199 7.31785C18.5036 7.31785 21.5312 8.95433 23.9628 10.2698C25.0369 10.897 26.1599 11.4365 27.3207 11.8832C27.5531 11.9605 27.8067 11.9423 28.0257 11.8327C28.2447 11.723 28.4112 11.5308 28.4885 11.2984C28.5658 11.0659 28.5477 10.8123 28.438 10.5933C28.3283 10.3743 28.1361 10.2078 27.9037 10.1305C27.1544 9.85176 26.4281 9.51496 25.7312 9.12314C27.7154 7.99918 29.945 7.37929 32.2246 7.31785C36.9145 7.31785 39.6044 10.3436 39.6044 15.6202C39.6044 19.0426 38.2364 21.608 36.7881 24.3229C35.5142 26.4327 34.5999 28.7396 34.0825 31.1492C33.5647 34.1154 32.3702 36.9223 30.5918 39.3519C30.3363 39.7366 30.102 40.0899 29.9055 40.4109C29.8751 40.4511 29.8333 40.4812 29.7855 40.4972C29.7377 40.5132 29.6862 40.5144 29.6377 40.5007C29.5893 40.4869 29.5461 40.4588 29.5139 40.4201C29.4816 40.3814 29.4619 40.3338 29.4571 40.2836V34.0698C29.4571 32.6018 28.874 31.194 27.836 30.156C26.798 29.118 25.3902 28.5349 23.9223 28.5349C22.4543 28.5349 21.0465 29.118 20.0085 30.156C18.9705 31.194 18.3874 32.6018 18.3874 34.0698V40.2836C18.3826 40.3336 18.3629 40.381 18.3308 40.4197C18.2987 40.4583 18.2557 40.4864 18.2074 40.5002C18.1591 40.5141 18.1077 40.5131 18.06 40.4973C18.0123 40.4815 17.9705 40.4517 17.94 40.4118C17.7426 40.0881 17.5082 39.7375 17.2527 39.3528C15.4743 36.9232 14.2798 34.1163 13.7621 31.1501C13.2446 28.7405 12.3303 26.4336 11.0564 24.3238C9.60813 21.608 8.24009 19.0426 8.24009 15.6202C8.24009 15.4873 8.253 15.3637 8.25669 15.2327L10.1598 19.6736C10.2309 19.8394 10.3492 19.9808 10.4999 20.0801C10.6505 20.1794 10.8271 20.2323 11.0075 20.2323C11.188 20.2323 11.3645 20.1794 11.5152 20.0801C11.6659 19.9808 11.7841 19.8394 11.8553 19.6736L14.2012 14.2014L19.6733 11.8555C19.8392 11.7844 19.9805 11.6661 20.0798 11.5154C20.1792 11.3648 20.2321 11.1882 20.2321 11.0078C20.2321 10.8273 20.1792 10.6508 20.0798 10.5001C19.9805 10.3494 19.8392 10.2312 19.6733 10.16L14.2012 7.81414L14.0517 7.46083C14.5695 7.36922 15.0941 7.32139 15.6199 7.31785ZM5.04738 11.0078L8.88029 9.36483C9.09789 9.27153 9.27129 9.09813 9.36459 8.88053L11.0075 5.04762L12.6505 8.88053C12.7438 9.09813 12.9172 9.27153 13.1348 9.36483L16.9677 11.0078L13.1348 12.6507C12.9172 12.744 12.7438 12.9174 12.6505 13.135L11.0075 16.9679L9.36459 13.135C9.27129 12.9174 9.09789 12.744 8.88029 12.6507L5.04738 11.0078Z" fill="#81CEB2"/>
</g>
</g>
</svg>
