<svg width="46" height="46" viewBox="0 0 46 46" fill="none" xmlns="http://www.w3.org/2000/svg">
<g id="Frame">
<g id="Group">
<g id="Vector">
<path fill-rule="evenodd" clip-rule="evenodd" d="M11.9303 25.7675H9.6702C9.35823 25.7668 9.05142 25.6878 8.77791 25.5378C8.5044 25.3877 8.27294 25.1714 8.10475 24.9086C6.31681 22.146 5.39992 18.9101 5.47292 15.6202C5.47292 9.26614 8.92115 5.4729 14.6977 5.4729C17.6303 5.4729 20.4891 6.82064 22.9078 8.10566C25.408 6.4672 28.3143 5.55571 31.3024 5.4729C37.0789 5.4729 40.5272 9.26614 40.5272 15.6202C40.5991 18.9097 39.683 22.1451 37.8972 24.9086C37.7286 25.1716 37.4966 25.388 37.2226 25.5381C36.9486 25.6881 36.6414 25.767 36.329 25.7675H34.0698H32.2249H13.7752H11.9303ZM23.0397 10.2688C20.6066 8.95353 17.5807 7.31786 14.6977 7.31786C10.0078 7.31786 7.31788 10.3436 7.31788 15.6202C7.23908 18.5616 8.05729 21.4573 9.66374 23.9225H36.329C37.94 21.459 38.761 18.5626 38.6822 15.6202C38.6822 10.3436 35.9923 7.31786 31.3024 7.31786C29.0226 7.38048 26.7928 8.00063 24.8081 9.12408C25.505 9.51609 26.2317 9.8526 26.9815 10.1305C27.2139 10.2078 27.4061 10.3743 27.5158 10.5933C27.6254 10.8123 27.6436 11.0659 27.5663 11.2984C27.489 11.5308 27.3225 11.723 27.1035 11.8327C26.8845 11.9423 26.6309 11.9605 26.3985 11.8832C25.238 11.4365 24.1154 10.8969 23.0416 10.2698L23.0397 10.2688Z" fill="#81CEB2"/>
<path fill-rule="evenodd" clip-rule="evenodd" d="M11.9303 25.7675V26.69C11.9303 27.4239 12.2218 28.1278 12.7408 28.6468C13.2598 29.1658 13.9637 29.4574 14.6977 29.4574H16.6838L16.991 31.3024H15.6202C15.3755 31.3024 15.1409 31.3995 14.9679 31.5725C14.7949 31.7455 14.6977 31.9802 14.6977 32.2248C14.6977 32.4695 14.7949 32.7041 14.9679 32.8771C15.1409 33.0501 15.3755 33.1473 15.6202 33.1473H17.2982L17.7594 35.9148H16.5427C16.298 35.9148 16.0634 36.0119 15.8904 36.1849C15.7174 36.3579 15.6202 36.5926 15.6202 36.8372C15.6202 37.0819 15.7174 37.3165 15.8904 37.4895C16.0634 37.6625 16.298 37.7597 16.5427 37.7597H18.0666L18.2456 38.8307C18.3181 39.2609 18.491 39.668 18.7504 40.0189C19.0097 40.3697 19.3481 40.6545 19.7382 40.85L22.5877 42.2799C22.7157 42.3439 22.8569 42.3772 23 42.3772C23.1432 42.3772 23.2844 42.3439 23.4124 42.2799L26.2619 40.8546C26.6523 40.6594 26.9909 40.3746 27.2501 40.0235C27.5093 39.6724 27.6819 39.2649 27.7536 38.8344L27.9325 37.7597H29.4574C29.7021 37.7597 29.9367 37.6625 30.1097 37.4895C30.2827 37.3165 30.3799 37.0819 30.3799 36.8372C30.3799 36.5926 30.2827 36.3579 30.1097 36.1849C29.9367 36.0119 29.7021 35.9148 29.4574 35.9148H28.2397L28.701 33.1473H30.3799C30.6245 33.1473 30.8592 33.0501 31.0322 32.8771C31.2052 32.7041 31.3024 32.4695 31.3024 32.2248C31.3024 31.9802 31.2052 31.7455 31.0322 31.5725C30.8592 31.3995 30.6245 31.3024 30.3799 31.3024H29.0091L29.3163 29.4574H31.3024C32.0363 29.4574 32.7402 29.1658 33.2592 28.6468C33.7782 28.1278 34.0698 27.4239 34.0698 26.69V25.7675H32.2249V26.69C32.2249 26.9346 32.1277 27.1692 31.9547 27.3422C31.7817 27.5152 31.547 27.6124 31.3024 27.6124H14.6977C14.4531 27.6124 14.2184 27.5152 14.0454 27.3422C13.8724 27.1692 13.7752 26.9346 13.7752 26.69V25.7675H11.9303ZM25.7664 38.9231C25.8528 38.8062 25.9104 38.6706 25.9345 38.5272L26.0618 37.7597H19.9374L20.0647 38.5263C20.0891 38.6697 20.147 38.8054 20.2335 38.9224C20.32 39.0394 20.4328 39.1344 20.5628 39.1997L23 40.4183L25.4372 39.1997C25.5672 39.1347 25.68 39.0399 25.7664 38.9231ZM19.6302 35.9148H26.3699L26.8311 33.1473H19.169L19.6302 35.9148ZM18.8618 31.3024H27.1383L27.4464 29.4574H18.5537L18.8618 31.3024Z" fill="#81CEB2"/>
</g>
</g>
</g>
</svg>
