<svg width="84" height="68" viewBox="0 0 84 68" fill="none" xmlns="http://www.w3.org/2000/svg">
<g id="Frame" filter="url(#filter0_d_67_880)">
<rect width="68" height="68" rx="34" transform="matrix(-1 0 0 1 68 0)" fill="white"/>
<g id="Group 4131">
<path id="Rectangle 1162 (Stroke)" d="M53.8552 40.7613L53.8506 40.7898L53.8619 40.8163L54.3911 42.0577L54.417 42.1185H54.4831C54.8371 42.1185 55.1387 41.8614 55.1947 41.5118L56.2146 35.1438C56.4001 33.9858 55.5366 32.9164 54.3515 32.8799C51.4621 32.7909 44.2662 32.6062 34.3107 32.6062C24.2586 32.6062 16.6554 32.7945 13.6531 32.8824C12.4656 32.9172 11.601 33.9882 11.7867 35.1475L12.806 41.5118C12.862 41.8614 13.1636 42.1185 13.5176 42.1185H13.5837L13.6096 42.0577L14.1388 40.8164L14.1501 40.7898L14.1456 40.7613L13.2099 34.9196C13.1597 34.6061 13.3908 34.3321 13.6953 34.3232C16.6872 34.2356 24.276 34.0476 34.3107 34.0476C44.2488 34.0476 51.4296 34.2319 54.3071 34.3206C54.6111 34.3299 54.8414 34.6037 54.7914 34.9158L53.8552 40.7613Z" fill="#81CEB2" stroke="#81CEB2" stroke-width="0.2"/>
<path id="Rectangle 1178 (Stroke)" d="M54.9037 27.8407H54.9714L54.9966 27.7779L55.1528 27.3881C56.2937 24.5405 54.6276 21.332 51.5308 20.8633C47.5313 20.258 41.3724 19.5718 34.001 19.5718C26.6297 19.5718 20.4708 20.258 16.4713 20.8633C13.3745 21.332 11.7084 24.5405 12.8493 27.3881L13.0055 27.7779L13.0307 27.8407H13.0983H54.9037ZM16.687 22.2885C20.6316 21.6915 26.7169 21.0131 34.001 21.0131C41.2852 21.0131 47.3705 21.6915 51.3151 22.2885C53.2754 22.5852 54.4519 24.4944 53.9631 26.3993H14.039C13.5502 24.4944 14.7267 22.5852 16.687 22.2885Z" fill="#81CEB2" stroke="#81CEB2" stroke-width="0.2"/>
<path id="Rectangle 1163 (Stroke)" d="M29.9657 35.7097C27.3395 35.7097 25.2105 37.8387 25.2105 40.4649V45.3218C25.2105 46.2965 25.926 47.1234 26.8905 47.2635L29.6836 47.6694C29.8707 47.6965 30.0607 47.6965 30.2478 47.6694L33.0409 47.2635C34.0054 47.1234 34.7209 46.2965 34.7209 45.3218V40.4649C34.7209 37.8387 32.5919 35.7097 29.9657 35.7097ZM26.6519 40.4649C26.6519 38.6347 28.1356 37.1511 29.9657 37.1511C31.7959 37.1511 33.2795 38.6347 33.2795 40.4649V45.3218C33.2795 45.5805 33.0896 45.7999 32.8337 45.8371L30.0406 46.243C29.9909 46.2502 29.9405 46.2502 29.8908 46.243L27.0977 45.8371C26.8418 45.7999 26.6519 45.5805 26.6519 45.3218V40.4649Z" fill="#81CEB2" stroke="#81CEB2" stroke-width="0.2"/>
<path id="Rectangle 1164 (Stroke)" d="M38.0348 35.7097C35.4086 35.7097 33.2796 37.8387 33.2796 40.4649V45.3218C33.2796 46.2965 33.9951 47.1234 34.9596 47.2635L37.7527 47.6694C37.9398 47.6965 38.1298 47.6965 38.3169 47.6694L41.11 47.2635C42.0745 47.1234 42.79 46.2965 42.79 45.3218V40.4649C42.79 37.8387 40.661 35.7097 38.0348 35.7097ZM34.721 40.4649C34.721 38.6347 36.2047 37.1511 38.0348 37.1511C39.865 37.1511 41.3486 38.6347 41.3486 40.4649V45.3218C41.3486 45.5805 41.1587 45.7999 40.9028 45.8371L38.1097 46.243C38.06 46.2502 38.0096 46.2502 37.9599 46.243L35.1668 45.8371C34.9109 45.7999 34.721 45.5805 34.721 45.3218V40.4649Z" fill="#81CEB2" stroke="#81CEB2" stroke-width="0.2"/>
<path id="Rectangle 1167 (Stroke)" d="M45.1726 36.02C43.0606 36.02 41.3485 37.7321 41.3485 39.8441V44.3958C41.3485 45.343 42.0251 46.155 42.9567 46.3257L44.7985 46.6634C45.0532 46.7101 45.3147 46.7059 45.5678 46.6511L47.4502 46.2432C48.3527 46.0477 48.9968 45.2492 48.9968 44.3257V39.8441C48.9968 37.7321 47.2846 36.02 45.1726 36.02ZM42.7899 39.8441C42.7899 38.5282 43.8567 37.4614 45.1726 37.4614C46.4886 37.4614 47.5554 38.5282 47.5554 39.8441V44.3257C47.5554 44.5707 47.3845 44.7826 47.1449 44.8345L45.2626 45.2424C45.1954 45.2569 45.126 45.2581 45.0584 45.2457L43.2167 44.908C42.9694 44.8627 42.7899 44.6472 42.7899 44.3958V39.8441Z" fill="#81CEB2" stroke="#81CEB2" stroke-width="0.2"/>
<path id="Rectangle 1166 (Stroke)" d="M22.8279 36.02C20.7159 36.02 19.0038 37.7321 19.0038 39.8441V43.8711C19.0038 44.7487 19.5866 45.5196 20.431 45.7589L22.2732 46.2808C22.6425 46.3855 23.0345 46.3795 23.4004 46.2636L25.2823 45.6677C26.0978 45.4094 26.652 44.6526 26.652 43.7972V39.8441C26.652 37.7321 24.9399 36.02 22.8279 36.02ZM20.4451 39.8441C20.4451 38.5282 21.5119 37.4614 22.8279 37.4614C24.1439 37.4614 25.2106 38.5282 25.2106 39.8441V43.7972C25.2106 44.0242 25.0636 44.225 24.8472 44.2936L22.9653 44.8895C22.8682 44.9202 22.7641 44.9218 22.6661 44.8941L20.8239 44.3721C20.5998 44.3086 20.4451 44.104 20.4451 43.8711V39.8441Z" fill="#81CEB2" stroke="#81CEB2" stroke-width="0.2"/>
<path id="Rectangle 1168 (Stroke)" d="M20.4012 43.663L20.4439 43.6331V43.5811V39.6967C20.4439 37.6661 18.7978 36.02 16.7672 36.02C14.5989 36.02 12.9015 37.8867 13.1071 40.0453L13.4429 43.572L13.4467 43.6116L13.4766 43.6377L15.4129 45.332C16.0925 45.9267 17.0903 45.9806 17.8301 45.4628L20.4012 43.663ZM14.542 39.9086C14.417 38.5963 15.4489 37.4614 16.7672 37.4614C18.0017 37.4614 19.0025 38.4622 19.0025 39.6967V42.8827L17.0035 44.2819C16.8072 44.4194 16.5424 44.4051 16.3621 44.2472L14.8273 42.9043L14.542 39.9086Z" fill="#81CEB2" stroke="#81CEB2" stroke-width="0.2"/>
<path id="Rectangle 1170 (Stroke)" d="M54.5225 43.6377L54.5524 43.6116L54.5562 43.572L54.8921 40.0453C55.0977 37.8867 53.4002 36.02 51.232 36.02C49.2014 36.02 47.5553 37.6661 47.5553 39.6967V43.5811V43.6331L47.5979 43.663L50.169 45.4628C50.9088 45.9806 51.9066 45.9267 52.5862 45.332L54.5225 43.6377ZM48.9967 39.6967C48.9967 38.4622 49.9974 37.4614 51.232 37.4614C52.5502 37.4614 53.5822 38.5963 53.4572 39.9086L53.1719 42.9043L51.6371 44.2472C51.4567 44.4051 51.1919 44.4194 50.9956 44.2819L48.9967 42.8827V39.6967Z" fill="#81CEB2" stroke="#81CEB2" stroke-width="0.2"/>
<path id="Rectangle 1172" d="M15.3796 31.7752C15.3796 31.6038 15.5186 31.4648 15.69 31.4648H18.1727C18.3441 31.4648 18.4831 31.6038 18.4831 31.7752V33.0166C18.4831 33.188 18.3441 33.3269 18.1727 33.3269H15.69C15.5186 33.3269 15.3796 33.188 15.3796 33.0166V31.7752Z" fill="white"/>
<path id="Rectangle 1172 (Stroke)" fill-rule="evenodd" clip-rule="evenodd" d="M14.7588 31.7752C14.7588 31.261 15.1756 30.8442 15.6898 30.8442H18.1726C18.6868 30.8442 19.1036 31.261 19.1036 31.7752V33.0166C19.1036 33.5308 18.6868 33.9476 18.1726 33.9476H15.6898C15.1756 33.9476 14.7588 33.5308 14.7588 33.0166V31.7752ZM16.0002 32.0856V32.7062H17.8622V32.0856H16.0002Z" fill="#81CEB2"/>
<path id="Rectangle 1179" d="M26.552 31.7752C26.552 31.6038 26.6909 31.4648 26.8623 31.4648H29.3451C29.5165 31.4648 29.6554 31.6038 29.6554 31.7752V33.0166C29.6554 33.188 29.5165 33.3269 29.3451 33.3269H26.8623C26.6909 33.3269 26.552 33.188 26.552 33.0166V31.7752Z" fill="white"/>
<path id="Rectangle 1179 (Stroke)" fill-rule="evenodd" clip-rule="evenodd" d="M25.9312 31.7752C25.9312 31.261 26.348 30.8442 26.8622 30.8442H29.3449C29.8591 30.8442 30.276 31.261 30.276 31.7752V33.0166C30.276 33.5308 29.8591 33.9476 29.3449 33.9476H26.8622C26.348 33.9476 25.9312 33.5308 25.9312 33.0166V31.7752ZM27.1725 32.0856V32.7062H29.0346V32.0856H27.1725Z" fill="#81CEB2"/>
<path id="Rectangle 1180" d="M37.7244 31.7752C37.7244 31.6038 37.8633 31.4648 38.0347 31.4648H40.5175C40.6889 31.4648 40.8278 31.6038 40.8278 31.7752V33.0166C40.8278 33.188 40.6889 33.3269 40.5175 33.3269H38.0347C37.8633 33.3269 37.7244 33.188 37.7244 33.0166V31.7752Z" fill="white"/>
<path id="Rectangle 1180 (Stroke)" fill-rule="evenodd" clip-rule="evenodd" d="M37.1038 31.7752C37.1038 31.261 37.5206 30.8442 38.0348 30.8442H40.5175C41.0317 30.8442 41.4486 31.261 41.4486 31.7752V33.0166C41.4486 33.5308 41.0317 33.9476 40.5175 33.9476H38.0348C37.5206 33.9476 37.1038 33.5308 37.1038 33.0166V31.7752ZM38.3451 32.0856V32.7062H40.2072V32.0856H38.3451Z" fill="#81CEB2"/>
<path id="Rectangle 1181" d="M48.8967 31.7752C48.8967 31.6038 49.0357 31.4648 49.2071 31.4648H51.6898C51.8612 31.4648 52.0002 31.6038 52.0002 31.7752V33.0166C52.0002 33.188 51.8612 33.3269 51.6898 33.3269H49.2071C49.0357 33.3269 48.8967 33.188 48.8967 33.0166V31.7752Z" fill="white"/>
<path id="Rectangle 1181 (Stroke)" fill-rule="evenodd" clip-rule="evenodd" d="M48.2761 31.7752C48.2761 31.261 48.693 30.8442 49.2072 30.8442H51.6899C52.2041 30.8442 52.6209 31.261 52.6209 31.7752V33.0166C52.6209 33.5308 52.2041 33.9476 51.6899 33.9476H49.2072C48.693 33.9476 48.2761 33.5308 48.2761 33.0166V31.7752ZM49.5175 32.0856V32.7062H51.3796V32.0856H49.5175Z" fill="#81CEB2"/>
</g>
</g>
<defs>
<filter id="filter0_d_67_880" x="-16" y="-16" width="100" height="100" filterUnits="userSpaceOnUse" color-interpolation-filters="sRGB">
<feFlood flood-opacity="0" result="BackgroundImageFix"/>
<feColorMatrix in="SourceAlpha" type="matrix" values="0 0 0 0 0 0 0 0 0 0 0 0 0 0 0 0 0 0 127 0" result="hardAlpha"/>
<feOffset/>
<feGaussianBlur stdDeviation="8"/>
<feComposite in2="hardAlpha" operator="out"/>
<feColorMatrix type="matrix" values="0 0 0 0 0.513021 0 0 0 0 0.602604 0 0 0 0 0.625 0 0 0 0.1 0"/>
<feBlend mode="normal" in2="BackgroundImageFix" result="effect1_dropShadow_67_880"/>
<feBlend mode="normal" in="SourceGraphic" in2="effect1_dropShadow_67_880" result="shape"/>
</filter>
</defs>
</svg>
